{
 "cells": [
  {
   "cell_type": "markdown",
   "id": "1d1ac32e-92c1-499a-8fc2-791872695720",
   "metadata": {
    "tags": []
   },
   "source": [
    "# Environment Setup"
   ]
  },
  {
   "cell_type": "code",
   "execution_count": 8,
   "id": "3809e448-0208-4eb5-a2eb-5b8ddfce56b2",
   "metadata": {},
   "outputs": [
    {
     "name": "stdout",
     "output_type": "stream",
     "text": [
      "nvcc: NVIDIA (R) Cuda compiler driver\n",
      "Copyright (c) 2005-2020 NVIDIA Corporation\n",
      "Built on Wed_Jul_22_19:09:09_PDT_2020\n",
      "Cuda compilation tools, release 11.0, V11.0.221\n",
      "Build cuda_11.0_bu.TC445_37.28845127_0\n",
      "Torch: 1.10.0\n"
     ]
    }
   ],
   "source": [
    "# Check CUDA and Torch version (optional)\n",
    "!nvcc --version\n",
    "import torch \n",
    "print(\"Torch:\", torch.__version__)"
   ]
  },
  {
   "cell_type": "code",
   "execution_count": 4,
   "id": "35bca4a5-c361-4152-9e55-f1f13d6da6c4",
   "metadata": {},
   "outputs": [
    {
     "name": "stdout",
     "output_type": "stream",
     "text": [
      "Collecting package metadata (current_repodata.json): done\n",
      "Solving environment: done\n",
      "\n",
      "\n",
      "==> WARNING: A newer version of conda exists. <==\n",
      "  current version: 4.10.3\n",
      "  latest version: 4.13.0\n",
      "\n",
      "Please update conda by running\n",
      "\n",
      "    $ conda update -n base -c defaults conda\n",
      "\n",
      "\n",
      "\n",
      "## Package Plan ##\n",
      "\n",
      "  environment location: /userhome/cs/mastery/anaconda3/envs/DASC7606_A2\n",
      "\n",
      "  added / updated specs:\n",
      "    - cudatoolkit=11.3\n",
      "    - pytorch==1.10.0\n",
      "    - torchaudio==0.10.0\n",
      "    - torchvision==0.11.0\n",
      "\n",
      "\n",
      "The following NEW packages will be INSTALLED:\n",
      "\n",
      "  python_abi         conda-forge/linux-64::python_abi-3.9-2_cp39\n",
      "\n",
      "The following packages will be UPDATED:\n",
      "\n",
      "  ca-certificates    pkgs/main::ca-certificates-2022.4.26-~ --> conda-forge::ca-certificates-2022.6.15-ha878542_0\n",
      "\n",
      "The following packages will be SUPERSEDED by a higher-priority channel:\n",
      "\n",
      "  certifi            pkgs/main::certifi-2022.6.15-py39h06a~ --> conda-forge::certifi-2022.6.15-py39hf3d152e_0\n",
      "\n",
      "\n",
      "Preparing transaction: done\n",
      "Verifying transaction: done\n",
      "Executing transaction: done\n"
     ]
    }
   ],
   "source": [
    "# Override the Pytorch and CUDA installation with specific version\n",
    "!conda install pytorch==1.10.0 torchvision==0.11.0 torchaudio==0.10.0 cudatoolkit=11.3 -c pytorch -c conda-forge -y"
   ]
  },
  {
   "cell_type": "code",
   "execution_count": 5,
   "id": "6333a67a-cad8-4d23-b863-b33628068511",
   "metadata": {
    "tags": []
   },
   "outputs": [
    {
     "name": "stdout",
     "output_type": "stream",
     "text": [
      "Requirement already satisfied: ffmpeg in /userhome/cs/mastery/anaconda3/envs/DASC7606_A2/lib/python3.9/site-packages (1.4)\n",
      "Requirement already satisfied: cdflib in /userhome/cs/mastery/anaconda3/envs/DASC7606_A2/lib/python3.9/site-packages (0.4.4)\n",
      "Requirement already satisfied: attrs>=19.2.0 in /userhome/cs/mastery/anaconda3/envs/DASC7606_A2/lib/python3.9/site-packages (from cdflib) (21.4.0)\n",
      "Requirement already satisfied: numpy in /userhome/cs/mastery/anaconda3/envs/DASC7606_A2/lib/python3.9/site-packages (from cdflib) (1.22.3)\n",
      "Collecting package metadata (current_repodata.json): done\n",
      "Solving environment: done\n",
      "\n",
      "\n",
      "==> WARNING: A newer version of conda exists. <==\n",
      "  current version: 4.10.3\n",
      "  latest version: 4.13.0\n",
      "\n",
      "Please update conda by running\n",
      "\n",
      "    $ conda update -n base -c defaults conda\n",
      "\n",
      "\n",
      "\n",
      "## Package Plan ##\n",
      "\n",
      "  environment location: /userhome/cs/mastery/anaconda3/envs/DASC7606_A2\n",
      "\n",
      "  added / updated specs:\n",
      "    - ffmpeg\n",
      "\n",
      "\n",
      "The following packages will be REMOVED:\n",
      "\n",
      "  python_abi-3.9-2_cp39\n",
      "\n",
      "The following packages will be SUPERSEDED by a higher-priority channel:\n",
      "\n",
      "  ca-certificates    conda-forge::ca-certificates-2022.6.1~ --> pkgs/main::ca-certificates-2022.4.26-h06a4308_0\n",
      "  certifi            conda-forge::certifi-2022.6.15-py39hf~ --> pkgs/main::certifi-2022.6.15-py39h06a4308_0\n",
      "\n",
      "\n",
      "Preparing transaction: done\n",
      "Verifying transaction: done\n",
      "Executing transaction: done\n"
     ]
    }
   ],
   "source": [
    "# Install other necessary packages\n",
    "!pip install ffmpeg\n",
    "!pip install cdflib\n",
    "!conda update ffmpeg -y"
   ]
  },
  {
   "cell_type": "code",
   "execution_count": 6,
   "id": "14c55c5d-fd08-4651-95c9-80a0f50d20d7",
   "metadata": {
    "tags": []
   },
   "outputs": [
    {
     "name": "stdout",
     "output_type": "stream",
     "text": [
      "Looking in links: https://dl.fbaipublicfiles.com/detectron2/wheels/cu113/torch1.10/index.html\n",
      "Requirement already satisfied: detectron2 in /userhome/cs/mastery/anaconda3/envs/DASC7606_A2/lib/python3.9/site-packages (0.6+cu113)\n",
      "Requirement already satisfied: black==21.4b2 in /userhome/cs/mastery/anaconda3/envs/DASC7606_A2/lib/python3.9/site-packages (from detectron2) (21.4b2)\n",
      "Requirement already satisfied: pydot in /userhome/cs/mastery/anaconda3/envs/DASC7606_A2/lib/python3.9/site-packages (from detectron2) (1.4.2)\n",
      "Requirement already satisfied: tabulate in /userhome/cs/mastery/anaconda3/envs/DASC7606_A2/lib/python3.9/site-packages (from detectron2) (0.8.10)\n",
      "Requirement already satisfied: fvcore<0.1.6,>=0.1.5 in /userhome/cs/mastery/anaconda3/envs/DASC7606_A2/lib/python3.9/site-packages (from detectron2) (0.1.5.post20220512)\n",
      "Requirement already satisfied: future in /userhome/cs/mastery/anaconda3/envs/DASC7606_A2/lib/python3.9/site-packages (from detectron2) (0.18.2)\n",
      "Requirement already satisfied: Pillow>=7.1 in /userhome/cs/mastery/anaconda3/envs/DASC7606_A2/lib/python3.9/site-packages (from detectron2) (9.0.1)\n",
      "Requirement already satisfied: tensorboard in /userhome/cs/mastery/anaconda3/envs/DASC7606_A2/lib/python3.9/site-packages (from detectron2) (2.8.0)\n",
      "Requirement already satisfied: termcolor>=1.1 in /userhome/cs/mastery/anaconda3/envs/DASC7606_A2/lib/python3.9/site-packages (from detectron2) (1.1.0)\n",
      "Requirement already satisfied: cloudpickle in /userhome/cs/mastery/anaconda3/envs/DASC7606_A2/lib/python3.9/site-packages (from detectron2) (2.1.0)\n",
      "Requirement already satisfied: iopath<0.1.10,>=0.1.7 in /userhome/cs/mastery/anaconda3/envs/DASC7606_A2/lib/python3.9/site-packages (from detectron2) (0.1.9)\n",
      "Requirement already satisfied: hydra-core>=1.1 in /userhome/cs/mastery/anaconda3/envs/DASC7606_A2/lib/python3.9/site-packages (from detectron2) (1.2.0)\n",
      "Requirement already satisfied: tqdm>4.29.0 in /userhome/cs/mastery/anaconda3/envs/DASC7606_A2/lib/python3.9/site-packages (from detectron2) (4.64.0)\n",
      "Requirement already satisfied: yacs>=0.1.8 in /userhome/cs/mastery/anaconda3/envs/DASC7606_A2/lib/python3.9/site-packages (from detectron2) (0.1.8)\n",
      "Requirement already satisfied: omegaconf>=2.1 in /userhome/cs/mastery/anaconda3/envs/DASC7606_A2/lib/python3.9/site-packages (from detectron2) (2.2.2)\n",
      "Requirement already satisfied: matplotlib in /userhome/cs/mastery/anaconda3/envs/DASC7606_A2/lib/python3.9/site-packages (from detectron2) (3.5.1)\n",
      "Requirement already satisfied: pycocotools>=2.0.2 in /userhome/cs/mastery/anaconda3/envs/DASC7606_A2/lib/python3.9/site-packages (from detectron2) (2.0.4)\n",
      "Requirement already satisfied: click>=7.1.2 in /userhome/cs/mastery/anaconda3/envs/DASC7606_A2/lib/python3.9/site-packages (from black==21.4b2->detectron2) (8.0.4)\n",
      "Requirement already satisfied: regex>=2020.1.8 in /userhome/cs/mastery/anaconda3/envs/DASC7606_A2/lib/python3.9/site-packages (from black==21.4b2->detectron2) (2022.6.2)\n",
      "Requirement already satisfied: appdirs in /userhome/cs/mastery/anaconda3/envs/DASC7606_A2/lib/python3.9/site-packages (from black==21.4b2->detectron2) (1.4.4)\n",
      "Requirement already satisfied: pathspec<1,>=0.8.1 in /userhome/cs/mastery/anaconda3/envs/DASC7606_A2/lib/python3.9/site-packages (from black==21.4b2->detectron2) (0.9.0)\n",
      "Requirement already satisfied: toml>=0.10.1 in /userhome/cs/mastery/anaconda3/envs/DASC7606_A2/lib/python3.9/site-packages (from black==21.4b2->detectron2) (0.10.2)\n",
      "Requirement already satisfied: mypy-extensions>=0.4.3 in /userhome/cs/mastery/anaconda3/envs/DASC7606_A2/lib/python3.9/site-packages (from black==21.4b2->detectron2) (0.4.3)\n",
      "Requirement already satisfied: pyyaml>=5.1 in /userhome/cs/mastery/anaconda3/envs/DASC7606_A2/lib/python3.9/site-packages (from fvcore<0.1.6,>=0.1.5->detectron2) (6.0)\n",
      "Requirement already satisfied: numpy in /userhome/cs/mastery/anaconda3/envs/DASC7606_A2/lib/python3.9/site-packages (from fvcore<0.1.6,>=0.1.5->detectron2) (1.22.3)\n",
      "Requirement already satisfied: antlr4-python3-runtime==4.9.* in /userhome/cs/mastery/anaconda3/envs/DASC7606_A2/lib/python3.9/site-packages (from hydra-core>=1.1->detectron2) (4.9.3)\n",
      "Requirement already satisfied: packaging in /userhome/cs/mastery/anaconda3/envs/DASC7606_A2/lib/python3.9/site-packages (from hydra-core>=1.1->detectron2) (21.3)\n",
      "Requirement already satisfied: portalocker in /userhome/cs/mastery/anaconda3/envs/DASC7606_A2/lib/python3.9/site-packages (from iopath<0.1.10,>=0.1.7->detectron2) (2.4.0)\n",
      "Requirement already satisfied: cycler>=0.10 in /userhome/cs/mastery/anaconda3/envs/DASC7606_A2/lib/python3.9/site-packages (from matplotlib->detectron2) (0.11.0)\n",
      "Requirement already satisfied: python-dateutil>=2.7 in /userhome/cs/mastery/anaconda3/envs/DASC7606_A2/lib/python3.9/site-packages (from matplotlib->detectron2) (2.8.2)\n",
      "Requirement already satisfied: kiwisolver>=1.0.1 in /userhome/cs/mastery/anaconda3/envs/DASC7606_A2/lib/python3.9/site-packages (from matplotlib->detectron2) (1.4.0)\n",
      "Requirement already satisfied: fonttools>=4.22.0 in /userhome/cs/mastery/anaconda3/envs/DASC7606_A2/lib/python3.9/site-packages (from matplotlib->detectron2) (4.31.2)\n",
      "Requirement already satisfied: pyparsing>=2.2.1 in /userhome/cs/mastery/anaconda3/envs/DASC7606_A2/lib/python3.9/site-packages (from matplotlib->detectron2) (3.0.7)\n",
      "Requirement already satisfied: six>=1.5 in /userhome/cs/mastery/anaconda3/envs/DASC7606_A2/lib/python3.9/site-packages (from python-dateutil>=2.7->matplotlib->detectron2) (1.16.0)\n",
      "Requirement already satisfied: protobuf>=3.6.0 in /userhome/cs/mastery/anaconda3/envs/DASC7606_A2/lib/python3.9/site-packages (from tensorboard->detectron2) (3.19.4)\n",
      "Requirement already satisfied: markdown>=2.6.8 in /userhome/cs/mastery/anaconda3/envs/DASC7606_A2/lib/python3.9/site-packages (from tensorboard->detectron2) (3.3.6)\n",
      "Requirement already satisfied: google-auth<3,>=1.6.3 in /userhome/cs/mastery/anaconda3/envs/DASC7606_A2/lib/python3.9/site-packages (from tensorboard->detectron2) (2.6.2)\n",
      "Requirement already satisfied: tensorboard-plugin-wit>=1.6.0 in /userhome/cs/mastery/anaconda3/envs/DASC7606_A2/lib/python3.9/site-packages (from tensorboard->detectron2) (1.8.1)\n",
      "Requirement already satisfied: google-auth-oauthlib<0.5,>=0.4.1 in /userhome/cs/mastery/anaconda3/envs/DASC7606_A2/lib/python3.9/site-packages (from tensorboard->detectron2) (0.4.6)\n",
      "Requirement already satisfied: werkzeug>=0.11.15 in /userhome/cs/mastery/anaconda3/envs/DASC7606_A2/lib/python3.9/site-packages (from tensorboard->detectron2) (2.0.3)\n",
      "Requirement already satisfied: absl-py>=0.4 in /userhome/cs/mastery/anaconda3/envs/DASC7606_A2/lib/python3.9/site-packages (from tensorboard->detectron2) (1.0.0)\n",
      "Requirement already satisfied: tensorboard-data-server<0.7.0,>=0.6.0 in /userhome/cs/mastery/anaconda3/envs/DASC7606_A2/lib/python3.9/site-packages (from tensorboard->detectron2) (0.6.1)\n",
      "Requirement already satisfied: wheel>=0.26 in /userhome/cs/mastery/anaconda3/envs/DASC7606_A2/lib/python3.9/site-packages (from tensorboard->detectron2) (0.37.1)\n",
      "Requirement already satisfied: requests<3,>=2.21.0 in /userhome/cs/mastery/anaconda3/envs/DASC7606_A2/lib/python3.9/site-packages (from tensorboard->detectron2) (2.27.1)\n",
      "Requirement already satisfied: grpcio>=1.24.3 in /userhome/cs/mastery/anaconda3/envs/DASC7606_A2/lib/python3.9/site-packages (from tensorboard->detectron2) (1.44.0)\n",
      "Requirement already satisfied: setuptools>=41.0.0 in /userhome/cs/mastery/anaconda3/envs/DASC7606_A2/lib/python3.9/site-packages (from tensorboard->detectron2) (61.2.0)\n",
      "Requirement already satisfied: pyasn1-modules>=0.2.1 in /userhome/cs/mastery/anaconda3/envs/DASC7606_A2/lib/python3.9/site-packages (from google-auth<3,>=1.6.3->tensorboard->detectron2) (0.2.8)\n",
      "Requirement already satisfied: cachetools<6.0,>=2.0.0 in /userhome/cs/mastery/anaconda3/envs/DASC7606_A2/lib/python3.9/site-packages (from google-auth<3,>=1.6.3->tensorboard->detectron2) (5.0.0)\n",
      "Requirement already satisfied: rsa<5,>=3.1.4 in /userhome/cs/mastery/anaconda3/envs/DASC7606_A2/lib/python3.9/site-packages (from google-auth<3,>=1.6.3->tensorboard->detectron2) (4.8)\n",
      "Requirement already satisfied: requests-oauthlib>=0.7.0 in /userhome/cs/mastery/anaconda3/envs/DASC7606_A2/lib/python3.9/site-packages (from google-auth-oauthlib<0.5,>=0.4.1->tensorboard->detectron2) (1.3.1)\n",
      "Requirement already satisfied: importlib-metadata>=4.4 in /userhome/cs/mastery/anaconda3/envs/DASC7606_A2/lib/python3.9/site-packages (from markdown>=2.6.8->tensorboard->detectron2) (4.11.3)\n",
      "Requirement already satisfied: zipp>=0.5 in /userhome/cs/mastery/anaconda3/envs/DASC7606_A2/lib/python3.9/site-packages (from importlib-metadata>=4.4->markdown>=2.6.8->tensorboard->detectron2) (3.7.0)\n",
      "Requirement already satisfied: pyasn1<0.5.0,>=0.4.6 in /userhome/cs/mastery/anaconda3/envs/DASC7606_A2/lib/python3.9/site-packages (from pyasn1-modules>=0.2.1->google-auth<3,>=1.6.3->tensorboard->detectron2) (0.4.8)\n",
      "Requirement already satisfied: urllib3<1.27,>=1.21.1 in /userhome/cs/mastery/anaconda3/envs/DASC7606_A2/lib/python3.9/site-packages (from requests<3,>=2.21.0->tensorboard->detectron2) (1.26.9)\n",
      "Requirement already satisfied: idna<4,>=2.5 in /userhome/cs/mastery/anaconda3/envs/DASC7606_A2/lib/python3.9/site-packages (from requests<3,>=2.21.0->tensorboard->detectron2) (3.3)\n",
      "Requirement already satisfied: certifi>=2017.4.17 in /userhome/cs/mastery/anaconda3/envs/DASC7606_A2/lib/python3.9/site-packages (from requests<3,>=2.21.0->tensorboard->detectron2) (2022.6.15)\n",
      "Requirement already satisfied: charset-normalizer~=2.0.0 in /userhome/cs/mastery/anaconda3/envs/DASC7606_A2/lib/python3.9/site-packages (from requests<3,>=2.21.0->tensorboard->detectron2) (2.0.12)\n",
      "Requirement already satisfied: oauthlib>=3.0.0 in /userhome/cs/mastery/anaconda3/envs/DASC7606_A2/lib/python3.9/site-packages (from requests-oauthlib>=0.7.0->google-auth-oauthlib<0.5,>=0.4.1->tensorboard->detectron2) (3.2.0)\n"
     ]
    }
   ],
   "source": [
    "# install Detectron2 \n",
    "!python -m pip install detectron2 -f \\\n",
    "  https://dl.fbaipublicfiles.com/detectron2/wheels/cu113/torch1.10/index.html"
   ]
  },
  {
   "cell_type": "markdown",
   "id": "1469dd62-2ddc-4f9c-a9c7-bbaa26149533",
   "metadata": {
    "tags": []
   },
   "source": [
    "## Retreive Data"
   ]
  },
  {
   "cell_type": "markdown",
   "id": "3fa05b74-4c5d-45c6-857a-78426f9179fc",
   "metadata": {},
   "source": [
    "We have prepared the Human3.6M dataset needed:\n",
    "- [data_2d_h36m_cpn_ft_h36m_dbb.npz](https://drive.google.com/file/d/1FfnFpFzoOsJ2kzaY_L9q8buS7t2GClBL/view?usp=sharing)\n",
    "- [data_3d_h36m.npz](https://drive.google.com/file/d/1mFAlUkeIUCguSvYLib21l6VY6ByVFsQk/view?usp=sharing)"
   ]
  },
  {
   "cell_type": "code",
   "execution_count": 2,
   "id": "501e0573-61d7-4927-8742-9a44774f2dd0",
   "metadata": {},
   "outputs": [
    {
     "name": "stdout",
     "output_type": "stream",
     "text": [
      "\u001b[33mWARNING: Ignoring invalid distribution -illow (/userhome/cs/am203/anaconda3/lib/python3.9/site-packages)\u001b[0m\n",
      "\u001b[33mWARNING: Ignoring invalid distribution -illow (/userhome/cs/am203/anaconda3/lib/python3.9/site-packages)\u001b[0m\n",
      "Collecting gdown\n",
      "  Downloading gdown-4.5.1.tar.gz (14 kB)\n",
      "  Installing build dependencies ... \u001b[?25ldone\n",
      "\u001b[?25h  Getting requirements to build wheel ... \u001b[?25ldone\n",
      "\u001b[?25h    Preparing wheel metadata ... \u001b[?25ldone\n",
      "\u001b[?25hRequirement already satisfied: beautifulsoup4 in /userhome/cs/am203/anaconda3/lib/python3.9/site-packages (from gdown) (4.11.1)\n",
      "Requirement already satisfied: six in /userhome/cs/am203/anaconda3/lib/python3.9/site-packages (from gdown) (1.16.0)\n",
      "Requirement already satisfied: filelock in /userhome/cs/am203/anaconda3/lib/python3.9/site-packages (from gdown) (3.6.0)\n",
      "Requirement already satisfied: tqdm in /userhome/cs/am203/anaconda3/lib/python3.9/site-packages (from gdown) (4.64.0)\n",
      "Requirement already satisfied: requests[socks] in /userhome/cs/am203/anaconda3/lib/python3.9/site-packages (from gdown) (2.28.0)\n",
      "Requirement already satisfied: soupsieve>1.2 in /userhome/cs/am203/anaconda3/lib/python3.9/site-packages (from beautifulsoup4->gdown) (2.3.1)\n",
      "Requirement already satisfied: charset-normalizer~=2.0.0 in /userhome/cs/am203/anaconda3/lib/python3.9/site-packages (from requests[socks]->gdown) (2.0.4)\n",
      "Requirement already satisfied: idna<4,>=2.5 in /userhome/cs/am203/anaconda3/lib/python3.9/site-packages (from requests[socks]->gdown) (3.3)\n",
      "Requirement already satisfied: certifi>=2017.4.17 in /userhome/cs/am203/anaconda3/lib/python3.9/site-packages (from requests[socks]->gdown) (2022.6.15)\n",
      "Requirement already satisfied: urllib3<1.27,>=1.21.1 in /userhome/cs/am203/anaconda3/lib/python3.9/site-packages (from requests[socks]->gdown) (1.26.9)\n",
      "Requirement already satisfied: PySocks!=1.5.7,>=1.5.6 in /userhome/cs/am203/anaconda3/lib/python3.9/site-packages (from requests[socks]->gdown) (1.7.1)\n",
      "Building wheels for collected packages: gdown\n",
      "  Building wheel for gdown (PEP 517) ... \u001b[?25ldone\n",
      "\u001b[?25h  Created wheel for gdown: filename=gdown-4.5.1-py3-none-any.whl size=14933 sha256=63e3ba6ef7c99695d1ed27ff9ba952b8d302a0ac7f2c6abbf300d17a2ed4893e\n",
      "  Stored in directory: /userhome/cs/am203/.cache/pip/wheels/b8/79/f0/b523d25d96b0bbb12bb024b97940d08c4fcd498a00070c8d82\n",
      "Successfully built gdown\n",
      "\u001b[33mWARNING: Ignoring invalid distribution -illow (/userhome/cs/am203/anaconda3/lib/python3.9/site-packages)\u001b[0m\n",
      "Installing collected packages: gdown\n",
      "\u001b[33mWARNING: Ignoring invalid distribution -illow (/userhome/cs/am203/anaconda3/lib/python3.9/site-packages)\u001b[0m\n",
      "Successfully installed gdown-4.5.1\n",
      "\u001b[33mWARNING: Ignoring invalid distribution -illow (/userhome/cs/am203/anaconda3/lib/python3.9/site-packages)\u001b[0m\n",
      "\u001b[33mWARNING: Ignoring invalid distribution -illow (/userhome/cs/am203/anaconda3/lib/python3.9/site-packages)\u001b[0m\n",
      "\u001b[33mWARNING: Ignoring invalid distribution -illow (/userhome/cs/am203/anaconda3/lib/python3.9/site-packages)\u001b[0m\n"
     ]
    }
   ],
   "source": [
    "!pip install gdown"
   ]
  },
  {
   "cell_type": "code",
   "execution_count": 3,
   "id": "10df4207-0f4e-4d3b-aad7-ab44e1f1b6db",
   "metadata": {},
   "outputs": [
    {
     "name": "stdout",
     "output_type": "stream",
     "text": [
      "Downloading...\n",
      "From: https://drive.google.com/uc?id=1FfnFpFzoOsJ2kzaY_L9q8buS7t2GClBL\n",
      "To: /userhome/cs/am203/COMP7404/VideoPose3D/data/data_2d_h36m_cpn_ft_h36m_dbb.npz\n",
      "100%|█████████████████████████████████████████| 243M/243M [00:02<00:00, 105MB/s]\n",
      "Downloading...\n",
      "From: https://drive.google.com/uc?id=1mFAlUkeIUCguSvYLib21l6VY6ByVFsQk\n",
      "To: /userhome/cs/am203/COMP7404/VideoPose3D/data/data_3d_h36m.npz\n",
      "100%|████████████████████████████████████████| 153M/153M [00:03<00:00, 46.8MB/s]\n"
     ]
    }
   ],
   "source": [
    "# download dataset from google drive\n",
    "!gdown --fuzzy https://drive.google.com/file/d/1FfnFpFzoOsJ2kzaY_L9q8buS7t2GClBL/view?usp=sharing -O data/data_2d_h36m_cpn_ft_h36m_dbb.npz\n",
    "!gdown --fuzzy https://drive.google.com/file/d/1mFAlUkeIUCguSvYLib21l6VY6ByVFsQk/view?usp=sharing -O data/data_3d_h36m.npz\n",
    "!wget -c https://dl.fbaipublicfiles.com/video-pose-3d/pretrained_h36m_cpn.bin -O checkpoint/pretrained_h36m_cpn.bin"
   ]
  },
  {
   "cell_type": "markdown",
   "id": "86ee7126-201a-4b8a-ad9c-4e0709c73e87",
   "metadata": {},
   "source": [
    "# Evaluating the pretrained model"
   ]
  },
  {
   "cell_type": "code",
   "execution_count": 4,
   "id": "d271129c-bba4-4dae-a13f-5a2e68ac5198",
   "metadata": {
    "collapsed": true,
    "jupyter": {
     "outputs_hidden": true
    },
    "tags": []
   },
   "outputs": [
    {
     "name": "stdout",
     "output_type": "stream",
     "text": [
      "Namespace(dataset='h36m', keypoints='cpn_ft_h36m_dbb', subjects_train='S1,S5,S6,S7,S8', subjects_test='S9,S11', subjects_unlabeled='', actions='*', checkpoint='checkpoint', checkpoint_frequency=10, resume='', evaluate='pretrained_h36m_cpn.bin', render=False, by_subject=False, export_training_curves=False, stride=1, epochs=60, batch_size=1024, dropout=0.25, learning_rate=0.001, lr_decay=0.95, data_augmentation=True, test_time_augmentation=True, architecture='3,3,3,3,3', causal=False, channels=1024, subset=1, downsample=1, warmup=1, no_eval=False, dense=False, disable_optimizations=False, linear_projection=False, bone_length_term=True, no_proj=False, viz_subject=None, viz_action=None, viz_camera=0, viz_video=None, viz_skip=0, viz_output=None, viz_export=None, viz_bitrate=3000, viz_no_ground_truth=False, viz_limit=-1, viz_downsample=1, viz_size=5)\n",
      "Loading dataset...\n",
      "Preparing data...\n",
      "Loading 2D detections...\n",
      "INFO: Receptive field: 243 frames\n",
      "INFO: Trainable parameter count: 16952371\n",
      "Loading checkpoint checkpoint/pretrained_h36m_cpn.bin\n",
      "This model was trained for 80 epochs\n",
      "INFO: Testing on 543344 frames\n",
      "Evaluating...\n",
      "----Directions----\n",
      "Test time augmentation: True\n",
      "Protocol #1 Error (MPJPE): 40.8907862714504 mm\n",
      "Protocol #2 Error (P-MPJPE): 31.4224884353789 mm\n",
      "Protocol #3 Error (N-MPJPE): 37.97983393818478 mm\n",
      "Velocity Error (MPJVE): 2.2665471964834594 mm\n",
      "----------\n",
      "----Discussion----\n",
      "Test time augmentation: True\n",
      "Protocol #1 Error (MPJPE): 43.40995154856437 mm\n",
      "Protocol #2 Error (P-MPJPE): 33.85677452642005 mm\n",
      "Protocol #3 Error (N-MPJPE): 40.99453349549218 mm\n",
      "Velocity Error (MPJVE): 2.238868831303416 mm\n",
      "----------\n",
      "----Eating----\n",
      "Test time augmentation: True\n",
      "Protocol #1 Error (MPJPE): 34.79562916372048 mm\n",
      "Protocol #2 Error (P-MPJPE): 28.489283205194706 mm\n",
      "Protocol #3 Error (N-MPJPE): 34.028248713872365 mm\n",
      "Velocity Error (MPJVE): 1.6934289436455097 mm\n",
      "----------\n",
      "----Greeting----\n",
      "Test time augmentation: True\n",
      "Protocol #1 Error (MPJPE): 41.56884921304011 mm\n",
      "Protocol #2 Error (P-MPJPE): 33.27197086163504 mm\n",
      "Protocol #3 Error (N-MPJPE): 40.33288891690897 mm\n",
      "Velocity Error (MPJVE): 2.6246325218779076 mm\n",
      "----------\n",
      "----Phoning----\n",
      "Test time augmentation: True\n",
      "Protocol #1 Error (MPJPE): 43.17036431463152 mm\n",
      "Protocol #2 Error (P-MPJPE): 31.370964748119388 mm\n",
      "Protocol #3 Error (N-MPJPE): 39.91911779584889 mm\n",
      "Velocity Error (MPJVE): 1.6175419474384574 mm\n",
      "----------\n",
      "----Photo----\n",
      "Test time augmentation: True\n",
      "Protocol #1 Error (MPJPE): 47.63346594424174 mm\n",
      "Protocol #2 Error (P-MPJPE): 37.226915474737126 mm\n",
      "Protocol #3 Error (N-MPJPE): 44.63417698866796 mm\n",
      "Velocity Error (MPJVE): 2.0096933363163707 mm\n",
      "----------\n",
      "----Posing----\n",
      "Test time augmentation: True\n",
      "Protocol #1 Error (MPJPE): 43.69472625755495 mm\n",
      "Protocol #2 Error (P-MPJPE): 31.89203994631319 mm\n",
      "Protocol #3 Error (N-MPJPE): 42.126011486435615 mm\n",
      "Velocity Error (MPJVE): 2.0874952771284416 mm\n",
      "----------\n",
      "----Purchases----\n",
      "Test time augmentation: True\n",
      "Protocol #1 Error (MPJPE): 41.60866602614686 mm\n",
      "Protocol #2 Error (P-MPJPE): 31.16034058994233 mm\n",
      "Protocol #3 Error (N-MPJPE): 39.764263486156224 mm\n",
      "Velocity Error (MPJVE): 2.4440626590879737 mm\n",
      "----------\n",
      "----Sitting----\n",
      "Test time augmentation: True\n",
      "Protocol #1 Error (MPJPE): 50.29358214823876 mm\n",
      "Protocol #2 Error (P-MPJPE): 38.63063197203179 mm\n",
      "Protocol #3 Error (N-MPJPE): 48.186279752199525 mm\n",
      "Velocity Error (MPJVE): 1.2589748645229675 mm\n",
      "----------\n",
      "----SittingDown----\n",
      "Test time augmentation: True\n",
      "Protocol #1 Error (MPJPE): 55.92108114882222 mm\n",
      "Protocol #2 Error (P-MPJPE): 44.78226410581197 mm\n",
      "Protocol #3 Error (N-MPJPE): 53.26950835892865 mm\n",
      "Velocity Error (MPJVE): 1.756627480489525 mm\n",
      "----------\n",
      "----Smoking----\n",
      "Test time augmentation: True\n",
      "Protocol #1 Error (MPJPE): 43.02183963758881 mm\n",
      "Protocol #2 Error (P-MPJPE): 33.33627699196638 mm\n",
      "Protocol #3 Error (N-MPJPE): 40.375224873906404 mm\n",
      "Velocity Error (MPJVE): 1.595547384859198 mm\n",
      "----------\n",
      "----Waiting----\n",
      "Test time augmentation: True\n",
      "Protocol #1 Error (MPJPE): 42.51133929269053 mm\n",
      "Protocol #2 Error (P-MPJPE): 31.658620166163534 mm\n",
      "Protocol #3 Error (N-MPJPE): 40.13353799379844 mm\n",
      "Velocity Error (MPJVE): 1.8207342292318118 mm\n",
      "----------\n",
      "----WalkDog----\n",
      "Test time augmentation: True\n",
      "Protocol #1 Error (MPJPE): 45.02371738655856 mm\n",
      "Protocol #2 Error (P-MPJPE): 34.76586355169663 mm\n",
      "Protocol #3 Error (N-MPJPE): 41.803283132812766 mm\n",
      "Velocity Error (MPJVE): 3.063646378069645 mm\n",
      "----------\n",
      "----Walking----\n",
      "Test time augmentation: True\n",
      "Protocol #1 Error (MPJPE): 33.007942192167846 mm\n",
      "Protocol #2 Error (P-MPJPE): 25.8310107379834 mm\n",
      "Protocol #3 Error (N-MPJPE): 31.638811737428302 mm\n",
      "Velocity Error (MPJVE): 2.6165438115120287 mm\n",
      "----------\n",
      "----WalkTogether----\n",
      "Test time augmentation: True\n",
      "Protocol #1 Error (MPJPE): 32.65240135558657 mm\n",
      "Protocol #2 Error (P-MPJPE): 24.708683945653206 mm\n",
      "Protocol #3 Error (N-MPJPE): 30.528601684716204 mm\n",
      "Velocity Error (MPJVE): 2.205712452361141 mm\n",
      "----------\n",
      "Protocol #1   (MPJPE) action-wise average: 42.6 mm\n",
      "Protocol #2 (P-MPJPE) action-wise average: 32.8 mm\n",
      "Protocol #3 (N-MPJPE) action-wise average: 40.4 mm\n",
      "Velocity      (MPJVE) action-wise average: 2.09 mm\n"
     ]
    }
   ],
   "source": [
    "!python run.py -k cpn_ft_h36m_dbb -arc 3,3,3,3,3 -c checkpoint --evaluate pretrained_h36m_cpn.bin"
   ]
  },
  {
   "cell_type": "markdown",
   "id": "d57d9b3a-89bc-4635-829d-6b0ae723553e",
   "metadata": {},
   "source": [
    "# Predict arbitrary video"
   ]
  },
  {
   "cell_type": "code",
   "execution_count": 20,
   "id": "392a8034-a4a5-423f-912a-a4a7c76fd095",
   "metadata": {},
   "outputs": [
    {
     "name": "stdout",
     "output_type": "stream",
     "text": [
      "--2022-07-09 16:48:53--  https://dl.fbaipublicfiles.com/video-pose-3d/pretrained_h36m_detectron_coco.bin\n",
      "Resolving dl.fbaipublicfiles.com (dl.fbaipublicfiles.com)... 172.67.9.4, 104.22.75.142, 104.22.74.142, ...\n",
      "Connecting to dl.fbaipublicfiles.com (dl.fbaipublicfiles.com)|172.67.9.4|:443... connected.\n",
      "HTTP request sent, awaiting response... 416 Range Not Satisfiable\n",
      "\n",
      "    The file is already fully retrieved; nothing to do.\n",
      "\n"
     ]
    }
   ],
   "source": [
    "# Download pretrained model\n",
    "!wget -c https://dl.fbaipublicfiles.com/video-pose-3d/pretrained_h36m_detectron_coco.bin -O checkpoint/pretrained_h36m_detectron_coco.bin"
   ]
  },
  {
   "cell_type": "code",
   "execution_count": 6,
   "id": "7e88554d-9c9d-4200-9a34-7dc91e14b7c1",
   "metadata": {
    "collapsed": true,
    "jupyter": {
     "outputs_hidden": true
    },
    "tags": []
   },
   "outputs": [
    {
     "name": "stdout",
     "output_type": "stream",
     "text": [
      "ffmpeg version 4.2.2 Copyright (c) 2000-2019 the FFmpeg developers\n",
      "  built with gcc 7.3.0 (crosstool-NG 1.23.0.449-a04d0)\n",
      "  configuration: --prefix=/tmp/build/80754af9/ffmpeg_1587154242452/_h_env_placehold_placehold_placehold_placehold_placehold_placehold_placehold_placehold_placehold_placehold_placehold_placehold_placehold_placehold_placehold_placehold_placehold_placehold_placehold_placehold_placeho --cc=/tmp/build/80754af9/ffmpeg_1587154242452/_build_env/bin/x86_64-conda_cos6-linux-gnu-cc --disable-doc --enable-avresample --enable-gmp --enable-hardcoded-tables --enable-libfreetype --enable-libvpx --enable-pthreads --enable-libopus --enable-postproc --enable-pic --enable-pthreads --enable-shared --enable-static --enable-version3 --enable-zlib --enable-libmp3lame --disable-nonfree --enable-gpl --enable-gnutls --disable-openssl --enable-libopenh264 --enable-libx264\n",
      "  libavutil      56. 31.100 / 56. 31.100\n",
      "  libavcodec     58. 54.100 / 58. 54.100\n",
      "  libavformat    58. 29.100 / 58. 29.100\n",
      "  libavdevice    58.  8.100 / 58.  8.100\n",
      "  libavfilter     7. 57.100 /  7. 57.100\n",
      "  libavresample   4.  0.  0 /  4.  0.  0\n",
      "  libswscale      5.  5.100 /  5.  5.100\n",
      "  libswresample   3.  5.100 /  3.  5.100\n",
      "  libpostproc    55.  5.100 / 55.  5.100\n",
      "Input #0, mov,mp4,m4a,3gp,3g2,mj2, from 'video/video4_raw.mp4':\n",
      "  Metadata:\n",
      "    major_brand     : isom\n",
      "    minor_version   : 512\n",
      "    compatible_brands: isomiso2avc1mp41\n",
      "    encoder         : Lavf58.29.100\n",
      "  Duration: 00:00:20.04, start: 3.040000, bitrate: 18358 kb/s\n",
      "    Stream #0:0(und): Video: h264 (High) (avc1 / 0x31637661), yuv420p(tv, bt709), 2160x4096, 18355 kb/s, 25 fps, 25 tbr, 12800 tbn, 50 tbc (default)\n",
      "    Metadata:\n",
      "      handler_name    : L-SMASH Video Handler\n",
      "Output #0, mp4, to 'video/video4.mp4':\n",
      "  Metadata:\n",
      "    major_brand     : isom\n",
      "    minor_version   : 512\n",
      "    compatible_brands: isomiso2avc1mp41\n",
      "    encoder         : Lavf58.29.100\n",
      "    Stream #0:0(und): Video: h264 (High) (avc1 / 0x31637661), yuv420p(tv, bt709), 2160x4096, q=2-31, 18355 kb/s, 25 fps, 25 tbr, 12800 tbn, 12800 tbc (default)\n",
      "    Metadata:\n",
      "      handler_name    : L-SMASH Video Handler\n",
      "Stream mapping:\n",
      "  Stream #0:0 -> #0:0 (copy)\n",
      "Press [q] to stop, [?] for help\n",
      "frame=  425 fps=0.0 q=-1.0 Lsize=   38735kB time=00:00:19.92 bitrate=15929.6kbits/s speed=37.2x    \n",
      "video:38730kB audio:0kB subtitle:0kB other streams:0kB global headers:0kB muxing overhead: 0.013813%\n"
     ]
    }
   ],
   "source": [
    "# Raw files removed to save space\n",
    "!ffmpeg -i video/video1_raw.mp4 -ss 0:11 -to 0:50 -c copy video/video1.mp4\n",
    "!ffmpeg -i video/video2_raw.mp4 -ss 0:0 -to 0:50 -c copy video/video2.mp4\n",
    "!ffmpeg -i video/video3_raw.mp4 -ss 0:0 -to 0:25 -c copy video/video3.mp4\n",
    "!ffmpeg -i video/video4_raw.mp4 -ss 0:0 -to 0:25 -c copy video/video4.mp4"
   ]
  },
  {
   "cell_type": "code",
   "execution_count": 9,
   "id": "b56ff357-1d71-4b21-9377-61568a1eeccd",
   "metadata": {
    "collapsed": true,
    "jupyter": {
     "outputs_hidden": true
    },
    "tags": []
   },
   "outputs": [
    {
     "name": "stdout",
     "output_type": "stream",
     "text": [
      "mkdir: cannot create directory ‘inference_output’: File exists\n",
      "Processing ../video/video4.mp4\n",
      "ffmpeg version 4.2.2 Copyright (c) 2000-2019 the FFmpeg developers\n",
      "  built with gcc 7.3.0 (crosstool-NG 1.23.0.449-a04d0)\n",
      "  configuration: --prefix=/tmp/build/80754af9/ffmpeg_1587154242452/_h_env_placehold_placehold_placehold_placehold_placehold_placehold_placehold_placehold_placehold_placehold_placehold_placehold_placehold_placehold_placehold_placehold_placehold_placehold_placehold_placehold_placeho --cc=/tmp/build/80754af9/ffmpeg_1587154242452/_build_env/bin/x86_64-conda_cos6-linux-gnu-cc --disable-doc --enable-avresample --enable-gmp --enable-hardcoded-tables --enable-libfreetype --enable-libvpx --enable-pthreads --enable-libopus --enable-postproc --enable-pic --enable-pthreads --enable-shared --enable-static --enable-version3 --enable-zlib --enable-libmp3lame --disable-nonfree --enable-gpl --enable-gnutls --disable-openssl --enable-libopenh264 --enable-libx264\n",
      "  libavutil      56. 31.100 / 56. 31.100\n",
      "  libavcodec     58. 54.100 / 58. 54.100\n",
      "  libavformat    58. 29.100 / 58. 29.100\n",
      "  libavdevice    58.  8.100 / 58.  8.100\n",
      "  libavfilter     7. 57.100 /  7. 57.100\n",
      "  libavresample   4.  0.  0 /  4.  0.  0\n",
      "  libswscale      5.  5.100 /  5.  5.100\n",
      "  libswresample   3.  5.100 /  3.  5.100\n",
      "  libpostproc    55.  5.100 / 55.  5.100\n",
      "Input #0, mov,mp4,m4a,3gp,3g2,mj2, from '../video/video4.mp4':\n",
      "  Metadata:\n",
      "    major_brand     : isom\n",
      "    minor_version   : 512\n",
      "    compatible_brands: isomiso2avc1mp41\n",
      "    encoder         : Lavf58.29.100\n",
      "  Duration: 00:00:17.00, start: 3.040000, bitrate: 18665 kb/s\n",
      "    Stream #0:0(und): Video: h264 (High) (avc1 / 0x31637661), yuv420p(tv, bt709), 2160x4096, 18663 kb/s, 25 fps, 25 tbr, 12800 tbn, 50 tbc (default)\n",
      "    Metadata:\n",
      "      handler_name    : L-SMASH Video Handler\n",
      "Stream mapping:\n",
      "  Stream #0:0 -> #0:0 (h264 (native) -> rawvideo (native))\n",
      "Press [q] to stop, [?] for help\n",
      "Output #0, image2pipe, to 'pipe:':\n",
      "  Metadata:\n",
      "    major_brand     : isom\n",
      "    minor_version   : 512\n",
      "    compatible_brands: isomiso2avc1mp41\n",
      "    encoder         : Lavf58.29.100\n",
      "    Stream #0:0(und): Video: rawvideo (BGR[24] / 0x18524742), bgr24, 2160x4096, q=2-31, 5308416 kb/s, 25 fps, 25 tbn, 25 tbc (default)\n",
      "    Metadata:\n",
      "      handler_name    : L-SMASH Video Handler\n",
      "      encoder         : Lavc58.54.100 rawvideo\n",
      "/userhome/cs/am203/anaconda3/lib/python3.9/site-packages/detectron2/structures/image_list.py:88: UserWarning: __floordiv__ is deprecated, and its behavior will change in a future version of pytorch. It currently rounds toward 0 (like the 'trunc' function NOT 'floor'). This results in incorrect rounding for negative values. To keep the current behavior, use torch.div(a, b, rounding_mode='trunc'), or for actual floor division, use torch.div(a, b, rounding_mode='floor').\n",
      "  max_size = (max_size + (stride - 1)) // stride * stride\n",
      "/userhome/cs/am203/anaconda3/lib/python3.9/site-packages/torch/functional.py:445: UserWarning: torch.meshgrid: in an upcoming release, it will be required to pass the indexing argument. (Triggered internally at  /opt/conda/conda-bld/pytorch_1634272204863/work/aten/src/ATen/native/TensorShape.cpp:2157.)\n",
      "  return _VF.meshgrid(tensors, **kwargs)  # type: ignore[attr-defined]\n",
      "/userhome/cs/am203/anaconda3/lib/python3.9/site-packages/detectron2/structures/keypoints.py:224: UserWarning: __floordiv__ is deprecated, and its behavior will change in a future version of pytorch. It currently rounds toward 0 (like the 'trunc' function NOT 'floor'). This results in incorrect rounding for negative values. To keep the current behavior, use torch.div(a, b, rounding_mode='trunc'), or for actual floor division, use torch.div(a, b, rounding_mode='floor').\n",
      "  y_int = (pos - x_int) // w\n",
      "Frame 0 processed in 1.008s\n",
      "Frame 1 processed in 0.168s\n",
      "Frame 2 processed in 0.194ssize=   77760kB time=00:00:00.12 bitrate=5308416.0kbits/s speed=0.0932x    \n",
      "Frame 3 processed in 0.209s\n",
      "Frame 4 processed in 0.157s\n",
      "Frame 5 processed in 0.194ssize=  155520kB time=00:00:00.24 bitrate=5308416.0kbits/s speed=0.126x    \n",
      "Frame 6 processed in 0.173s\n",
      "Frame 7 processed in 0.182s\n",
      "Frame 8 processed in 0.161ssize=  233280kB time=00:00:00.36 bitrate=5308416.0kbits/s speed=0.145x    \n",
      "Frame 9 processed in 0.164s\n",
      "Frame 10 processed in 0.162s\n",
      "Frame 11 processed in 0.163size=  311040kB time=00:00:00.48 bitrate=5308416.0kbits/s speed=0.156x    \n",
      "Frame 12 processed in 0.153s\n",
      "Frame 13 processed in 0.147s\n",
      "Frame 14 processed in 0.162size=  388800kB time=00:00:00.60 bitrate=5308416.0kbits/s speed=0.164x    \n",
      "Frame 15 processed in 0.158s\n",
      "Frame 16 processed in 0.156s\n",
      "Frame 17 processed in 0.158size=  466560kB time=00:00:00.72 bitrate=5308416.0kbits/s speed=0.171x    \n",
      "Frame 18 processed in 0.167s\n",
      "Frame 19 processed in 0.154s\n",
      "Frame 20 processed in 0.158size=  544320kB time=00:00:00.84 bitrate=5308416.0kbits/s speed=0.176x    \n",
      "Frame 21 processed in 0.157s\n",
      "Frame 22 processed in 0.154s\n",
      "Frame 23 processed in 0.183size=  622080kB time=00:00:00.96 bitrate=5308416.0kbits/s speed=0.18x    \n",
      "Frame 24 processed in 0.194s\n",
      "Frame 25 processed in 0.165s\n",
      "Frame 26 processed in 0.157size=  699840kB time=00:00:01.08 bitrate=5308416.0kbits/s speed=0.182x    \n",
      "Frame 27 processed in 0.167s\n",
      "Frame 28 processed in 0.167s\n",
      "Frame 29 processed in 0.156size=  777600kB time=00:00:01.20 bitrate=5308416.0kbits/s speed=0.185x    \n",
      "Frame 30 processed in 0.149s\n",
      "Frame 31 processed in 0.149s\n",
      "Frame 32 processed in 0.172size=  855360kB time=00:00:01.32 bitrate=5308416.0kbits/s speed=0.188x    \n",
      "Frame 33 processed in 0.150s\n",
      "Frame 34 processed in 0.146s\n",
      "Frame 35 processed in 0.156size=  933120kB time=00:00:01.44 bitrate=5308416.0kbits/s speed=0.191x    \n",
      "Frame 36 processed in 0.146s\n",
      "Frame 37 processed in 0.144s\n",
      "Frame 38 processed in 0.149s\n",
      "Frame 39 processed in 0.189size= 1036800kB time=00:00:01.60 bitrate=5308416.0kbits/s speed=0.195x    \n",
      "Frame 40 processed in 0.145s\n",
      "Frame 41 processed in 0.148s\n",
      "Frame 42 processed in 0.149size= 1114560kB time=00:00:01.72 bitrate=5308416.0kbits/s speed=0.197x    \n",
      "Frame 43 processed in 0.157s\n",
      "Frame 44 processed in 0.196s\n",
      "Frame 45 processed in 0.148size= 1192320kB time=00:00:01.84 bitrate=5308416.0kbits/s speed=0.199x    \n",
      "Frame 46 processed in 0.147s\n",
      "Frame 47 processed in 0.164s\n",
      "Frame 48 processed in 0.172size= 1270080kB time=00:00:01.96 bitrate=5308416.0kbits/s speed= 0.2x    \n",
      "Frame 49 processed in 0.200s\n",
      "Frame 50 processed in 0.156s\n",
      "Frame 51 processed in 0.153size= 1347840kB time=00:00:02.08 bitrate=5308416.0kbits/s speed= 0.2x    \n",
      "Frame 52 processed in 0.159s\n",
      "Frame 53 processed in 0.150s\n",
      "Frame 54 processed in 0.194size= 1425600kB time=00:00:02.20 bitrate=5308416.0kbits/s speed=0.201x    \n",
      "Frame 55 processed in 0.143s\n",
      "Frame 56 processed in 0.144s\n",
      "Frame 57 processed in 0.145size= 1503360kB time=00:00:02.32 bitrate=5308416.0kbits/s speed=0.202x    \n",
      "Frame 58 processed in 0.150s\n",
      "Frame 59 processed in 0.195s\n",
      "Frame 60 processed in 0.172s\n",
      "Frame 61 processed in 0.162size= 1607040kB time=00:00:02.48 bitrate=5308416.0kbits/s speed=0.204x    \n",
      "Frame 62 processed in 0.176s\n",
      "Frame 63 processed in 0.148s\n",
      "Frame 64 processed in 0.155size= 1684800kB time=00:00:02.60 bitrate=5308416.0kbits/s speed=0.204x    \n",
      "Frame 65 processed in 0.154s\n",
      "Frame 66 processed in 0.147s\n",
      "Frame 67 processed in 0.167size= 1762560kB time=00:00:02.72 bitrate=5308416.0kbits/s speed=0.205x    \n",
      "Frame 68 processed in 0.159s\n",
      "Frame 69 processed in 0.162s\n",
      "Frame 70 processed in 0.147size= 1840320kB time=00:00:02.84 bitrate=5308416.0kbits/s speed=0.206x    \n",
      "Frame 71 processed in 0.157s\n",
      "Frame 72 processed in 0.169s\n",
      "Frame 73 processed in 0.160size= 1918080kB time=00:00:02.96 bitrate=5308416.0kbits/s speed=0.206x    \n",
      "Frame 74 processed in 0.144s\n",
      "Frame 75 processed in 0.147s\n",
      "Frame 76 processed in 0.145size= 1995840kB time=00:00:03.08 bitrate=5308416.0kbits/s speed=0.207x    \n",
      "Frame 77 processed in 0.150s\n",
      "Frame 78 processed in 0.145s\n",
      "Frame 79 processed in 0.184s\n",
      "Frame 80 processed in 0.153size= 2099520kB time=00:00:03.24 bitrate=5308416.0kbits/s speed=0.209x    \n",
      "Frame 81 processed in 0.141s\n",
      "Frame 82 processed in 0.172s\n",
      "Frame 83 processed in 0.145size= 2177280kB time=00:00:03.36 bitrate=5308416.0kbits/s speed=0.209x    \n",
      "Frame 84 processed in 0.155s\n",
      "Frame 85 processed in 0.153s\n",
      "Frame 86 processed in 0.159size= 2255040kB time=00:00:03.48 bitrate=5308416.0kbits/s speed=0.209x    \n",
      "Frame 87 processed in 0.180s\n",
      "Frame 88 processed in 0.158s\n",
      "Frame 89 processed in 0.149size= 2332800kB time=00:00:03.60 bitrate=5308416.0kbits/s speed=0.209x    \n",
      "Frame 90 processed in 0.161s\n",
      "Frame 91 processed in 0.158s\n",
      "Frame 92 processed in 0.179size= 2410560kB time=00:00:03.72 bitrate=5308416.0kbits/s speed=0.21x    \n",
      "Frame 93 processed in 0.154s\n",
      "Frame 94 processed in 0.141s\n",
      "Frame 95 processed in 0.155size= 2488320kB time=00:00:03.84 bitrate=5308416.0kbits/s speed=0.21x    \n",
      "Frame 96 processed in 0.153s\n",
      "Frame 97 processed in 0.153s\n",
      "Frame 98 processed in 0.150size= 2566080kB time=00:00:03.96 bitrate=5308416.0kbits/s speed=0.21x    \n",
      "Frame 99 processed in 0.155s\n",
      "Frame 100 processed in 0.154s\n",
      "Frame 101 processed in 0.151sze= 2643840kB time=00:00:04.08 bitrate=5308416.0kbits/s speed=0.211x    \n",
      "Frame 102 processed in 0.156s\n",
      "Frame 103 processed in 0.157s\n",
      "Frame 104 processed in 0.150sze= 2721600kB time=00:00:04.20 bitrate=5308416.0kbits/s speed=0.211x    \n",
      "Frame 105 processed in 0.158s\n",
      "Frame 106 processed in 0.157s\n",
      "Frame 107 processed in 0.153sze= 2799360kB time=00:00:04.32 bitrate=5308416.0kbits/s speed=0.211x    \n",
      "Frame 108 processed in 0.145s\n",
      "Frame 109 processed in 0.142s\n",
      "Frame 110 processed in 0.164sze= 2877120kB time=00:00:04.44 bitrate=5308416.0kbits/s speed=0.211x    \n",
      "Frame 111 processed in 0.142s\n",
      "Frame 112 processed in 0.140s\n",
      "Frame 113 processed in 0.141sze= 2954880kB time=00:00:04.56 bitrate=5308416.0kbits/s speed=0.212x    \n",
      "Frame 114 processed in 0.140s\n",
      "Frame 115 processed in 0.150s\n",
      "Frame 116 processed in 0.153s\n",
      "Frame 117 processed in 0.149sze= 3058560kB time=00:00:04.72 bitrate=5308416.0kbits/s speed=0.213x    \n",
      "Frame 118 processed in 0.153s\n",
      "Frame 119 processed in 0.149s\n",
      "Frame 120 processed in 0.141sze= 3136320kB time=00:00:04.84 bitrate=5308416.0kbits/s speed=0.213x    \n",
      "Frame 121 processed in 0.141s\n",
      "Frame 122 processed in 0.145s\n",
      "Frame 123 processed in 0.166sze= 3214080kB time=00:00:04.96 bitrate=5308416.0kbits/s speed=0.214x    \n",
      "Frame 124 processed in 0.143s\n",
      "Frame 125 processed in 0.142s\n",
      "Frame 126 processed in 0.169sze= 3291840kB time=00:00:05.08 bitrate=5308416.0kbits/s speed=0.214x    \n",
      "Frame 127 processed in 0.162s\n",
      "Frame 128 processed in 0.171s\n",
      "Frame 129 processed in 0.154sze= 3369600kB time=00:00:05.20 bitrate=5308416.0kbits/s speed=0.214x    \n",
      "Frame 130 processed in 0.151s\n",
      "Frame 131 processed in 0.171s\n",
      "Frame 132 processed in 0.157sze= 3447360kB time=00:00:05.32 bitrate=5308416.0kbits/s speed=0.214x    \n",
      "Frame 133 processed in 0.172s\n",
      "Frame 134 processed in 0.158s\n",
      "Frame 135 processed in 0.159sze= 3525120kB time=00:00:05.44 bitrate=5308416.0kbits/s speed=0.214x    \n",
      "Frame 136 processed in 0.145s\n",
      "Frame 137 processed in 0.155s\n",
      "Frame 138 processed in 0.161sze= 3602880kB time=00:00:05.56 bitrate=5308416.0kbits/s speed=0.214x    \n",
      "Frame 139 processed in 0.162s\n",
      "Frame 140 processed in 0.160s\n",
      "Frame 141 processed in 0.156sze= 3680640kB time=00:00:05.68 bitrate=5308416.0kbits/s speed=0.214x    \n",
      "Frame 142 processed in 0.163s\n",
      "Frame 143 processed in 0.159s\n",
      "Frame 144 processed in 0.155sze= 3758400kB time=00:00:05.80 bitrate=5308416.0kbits/s speed=0.214x    \n",
      "Frame 145 processed in 0.162s\n",
      "Frame 146 processed in 0.164s\n",
      "Frame 147 processed in 0.157sze= 3836160kB time=00:00:05.92 bitrate=5308416.0kbits/s speed=0.214x    \n",
      "Frame 148 processed in 0.164s\n",
      "Frame 149 processed in 0.162s\n",
      "Frame 150 processed in 0.167sze= 3913920kB time=00:00:06.04 bitrate=5308416.0kbits/s speed=0.214x    \n",
      "Frame 151 processed in 0.166s\n",
      "Frame 152 processed in 0.163s\n",
      "Frame 153 processed in 0.164sze= 3991680kB time=00:00:06.16 bitrate=5308416.0kbits/s speed=0.214x    \n",
      "Frame 154 processed in 0.165s\n",
      "Frame 155 processed in 0.158s\n",
      "Frame 156 processed in 0.163sze= 4069440kB time=00:00:06.28 bitrate=5308416.0kbits/s speed=0.214x    \n",
      "Frame 157 processed in 0.164s\n",
      "Frame 158 processed in 0.162s\n",
      "Frame 159 processed in 0.162sze= 4147200kB time=00:00:06.40 bitrate=5308416.0kbits/s speed=0.213x    \n",
      "Frame 160 processed in 0.156s\n",
      "Frame 161 processed in 0.164s\n",
      "Frame 162 processed in 0.169sze= 4224960kB time=00:00:06.52 bitrate=5308416.0kbits/s speed=0.213x    \n",
      "Frame 163 processed in 0.163s\n",
      "Frame 164 processed in 0.163s\n",
      "Frame 165 processed in 0.161sze= 4302720kB time=00:00:06.64 bitrate=5308416.0kbits/s speed=0.213x    \n",
      "Frame 166 processed in 0.162s\n",
      "Frame 167 processed in 0.161s\n",
      "Frame 168 processed in 0.156sze= 4380480kB time=00:00:06.76 bitrate=5308416.0kbits/s speed=0.213x    \n",
      "Frame 169 processed in 0.155s\n",
      "Frame 170 processed in 0.162s\n",
      "Frame 171 processed in 0.158sze= 4458240kB time=00:00:06.88 bitrate=5308416.0kbits/s speed=0.213x    \n",
      "Frame 172 processed in 0.158s\n",
      "Frame 173 processed in 0.162s\n",
      "Frame 174 processed in 0.155sze= 4536000kB time=00:00:07.00 bitrate=5308416.0kbits/s speed=0.213x    \n",
      "Frame 175 processed in 0.160s\n",
      "Frame 176 processed in 0.150s\n",
      "Frame 177 processed in 0.160sze= 4613760kB time=00:00:07.12 bitrate=5308416.0kbits/s speed=0.213x    \n",
      "Frame 178 processed in 0.147s\n",
      "Frame 179 processed in 0.142s\n",
      "Frame 180 processed in 0.141sze= 4691520kB time=00:00:07.24 bitrate=5308416.0kbits/s speed=0.213x    \n",
      "Frame 181 processed in 0.140s\n",
      "Frame 182 processed in 0.144s\n",
      "Frame 183 processed in 0.145s\n",
      "Frame 184 processed in 0.142sze= 4795200kB time=00:00:07.40 bitrate=5308416.0kbits/s speed=0.214x    \n",
      "Frame 185 processed in 0.144s\n",
      "Frame 186 processed in 0.144s\n",
      "Frame 187 processed in 0.143s\n",
      "Frame 188 processed in 0.142sze= 4898880kB time=00:00:07.56 bitrate=5308416.0kbits/s speed=0.215x    \n",
      "Frame 189 processed in 0.162s\n",
      "Frame 190 processed in 0.148s\n",
      "Frame 191 processed in 0.151sze= 4976640kB time=00:00:07.68 bitrate=5308416.0kbits/s speed=0.215x    \n",
      "Frame 192 processed in 0.149s\n",
      "Frame 193 processed in 0.149s\n",
      "Frame 194 processed in 0.139sze= 5054400kB time=00:00:07.80 bitrate=5308416.0kbits/s speed=0.215x    \n",
      "Frame 195 processed in 0.138s\n",
      "Frame 196 processed in 0.139s\n",
      "Frame 197 processed in 0.143sze= 5132160kB time=00:00:07.92 bitrate=5308416.0kbits/s speed=0.216x    \n",
      "Frame 198 processed in 0.145s\n",
      "Frame 199 processed in 0.145s\n",
      "Frame 200 processed in 0.143s\n",
      "Frame 201 processed in 0.143sze= 5235840kB time=00:00:08.08 bitrate=5308416.0kbits/s speed=0.216x    \n",
      "Frame 202 processed in 0.146s\n",
      "Frame 203 processed in 0.145s\n",
      "Frame 204 processed in 0.140s\n",
      "Frame 205 processed in 0.142sze= 5339520kB time=00:00:08.24 bitrate=5308416.0kbits/s speed=0.217x    \n",
      "Frame 206 processed in 0.146s\n",
      "Frame 207 processed in 0.154s\n",
      "Frame 208 processed in 0.154s\n",
      "Frame 209 processed in 0.150sze= 5443200kB time=00:00:08.40 bitrate=5308416.0kbits/s speed=0.217x    \n",
      "Frame 210 processed in 0.149s\n",
      "Frame 211 processed in 0.157s\n",
      "Frame 212 processed in 0.143sze= 5520960kB time=00:00:08.52 bitrate=5308416.0kbits/s speed=0.217x    \n",
      "Frame 213 processed in 0.146s\n",
      "Frame 214 processed in 0.162s\n",
      "Frame 215 processed in 0.143sze= 5598720kB time=00:00:08.64 bitrate=5308416.0kbits/s speed=0.217x    \n",
      "Frame 216 processed in 0.143s\n",
      "Frame 217 processed in 0.142s\n",
      "Frame 218 processed in 0.143s\n",
      "Frame 219 processed in 0.159sze= 5702400kB time=00:00:08.80 bitrate=5308416.0kbits/s speed=0.218x    \n",
      "Frame 220 processed in 0.144s\n",
      "Frame 221 processed in 0.138s\n",
      "Frame 222 processed in 0.138s\n",
      "Frame 223 processed in 0.146sze= 5806080kB time=00:00:08.96 bitrate=5308416.0kbits/s speed=0.218x    \n",
      "Frame 224 processed in 0.153s\n",
      "Frame 225 processed in 0.144s\n",
      "Frame 226 processed in 0.151sze= 5883840kB time=00:00:09.08 bitrate=5308416.0kbits/s speed=0.219x    \n",
      "Frame 227 processed in 0.148s\n",
      "Frame 228 processed in 0.148s\n",
      "Frame 229 processed in 0.156sze= 5961600kB time=00:00:09.20 bitrate=5308416.0kbits/s speed=0.219x    \n",
      "Frame 230 processed in 0.149s\n",
      "Frame 231 processed in 0.143s\n",
      "Frame 232 processed in 0.157sze= 6039360kB time=00:00:09.32 bitrate=5308416.0kbits/s speed=0.219x    \n",
      "Frame 233 processed in 0.145s\n",
      "Frame 234 processed in 0.141s\n",
      "Frame 235 processed in 0.178sze= 6117120kB time=00:00:09.44 bitrate=5308416.0kbits/s speed=0.219x    \n",
      "Frame 236 processed in 0.181s\n",
      "Frame 237 processed in 0.140s\n",
      "Frame 238 processed in 0.153sze= 6194880kB time=00:00:09.56 bitrate=5308416.0kbits/s speed=0.219x    \n",
      "Frame 239 processed in 0.146s\n",
      "Frame 240 processed in 0.166s\n",
      "Frame 241 processed in 0.162sze= 6272640kB time=00:00:09.68 bitrate=5308416.0kbits/s speed=0.219x    \n",
      "Frame 242 processed in 0.145s\n",
      "Frame 243 processed in 0.155s\n",
      "Frame 244 processed in 0.145sze= 6350400kB time=00:00:09.80 bitrate=5308416.0kbits/s speed=0.219x    \n",
      "Frame 245 processed in 0.165s\n",
      "Frame 246 processed in 0.157s\n",
      "Frame 247 processed in 0.146sze= 6428160kB time=00:00:09.92 bitrate=5308416.0kbits/s speed=0.219x    \n",
      "Frame 248 processed in 0.155s\n",
      "Frame 249 processed in 0.158s\n",
      "Frame 250 processed in 0.149sze= 6505920kB time=00:00:10.04 bitrate=5308416.0kbits/s speed=0.219x    \n",
      "Frame 251 processed in 0.156s\n",
      "Frame 252 processed in 0.154s\n",
      "Frame 253 processed in 0.152sze= 6583680kB time=00:00:10.16 bitrate=5308416.0kbits/s speed=0.219x    \n",
      "Frame 254 processed in 0.155s\n",
      "Frame 255 processed in 0.153s\n",
      "Frame 256 processed in 0.155sze= 6661440kB time=00:00:10.28 bitrate=5308416.0kbits/s speed=0.219x    \n",
      "Frame 257 processed in 0.161s\n",
      "Frame 258 processed in 0.162s\n",
      "Frame 259 processed in 0.159sze= 6739200kB time=00:00:10.40 bitrate=5308416.0kbits/s speed=0.219x    \n",
      "Frame 260 processed in 0.161s\n",
      "Frame 261 processed in 0.159s\n",
      "Frame 262 processed in 0.165sze= 6816960kB time=00:00:10.52 bitrate=5308416.0kbits/s speed=0.219x    \n",
      "Frame 263 processed in 0.163s\n",
      "Frame 264 processed in 0.160s\n",
      "Frame 265 processed in 0.162sze= 6894720kB time=00:00:10.64 bitrate=5308416.0kbits/s speed=0.219x    \n",
      "Frame 266 processed in 0.165s\n",
      "Frame 267 processed in 0.162s\n",
      "Frame 268 processed in 0.163sze= 6972480kB time=00:00:10.76 bitrate=5308416.0kbits/s speed=0.219x    \n",
      "Frame 269 processed in 0.190s\n",
      "Frame 270 processed in 0.194s\n",
      "Frame 271 processed in 0.187sze= 7050240kB time=00:00:10.88 bitrate=5308416.0kbits/s speed=0.218x    \n",
      "Frame 272 processed in 0.171s\n",
      "Frame 273 processed in 0.186s\n",
      "Frame 274 processed in 0.154sze= 7128000kB time=00:00:11.00 bitrate=5308416.0kbits/s speed=0.218x    \n",
      "Frame 275 processed in 0.155s\n",
      "Frame 276 processed in 0.158s\n",
      "Frame 277 processed in 0.156sze= 7205760kB time=00:00:11.12 bitrate=5308416.0kbits/s speed=0.218x    \n",
      "Frame 278 processed in 0.158s\n",
      "Frame 279 processed in 0.151s\n",
      "Frame 280 processed in 0.148sze= 7283520kB time=00:00:11.24 bitrate=5308416.0kbits/s speed=0.218x    \n",
      "Frame 281 processed in 0.170s\n",
      "Frame 282 processed in 0.155s\n",
      "Frame 283 processed in 0.154sze= 7361280kB time=00:00:11.36 bitrate=5308416.0kbits/s speed=0.218x    \n",
      "Frame 284 processed in 0.157s\n",
      "Frame 285 processed in 0.156s\n",
      "Frame 286 processed in 0.153sze= 7439040kB time=00:00:11.48 bitrate=5308416.0kbits/s speed=0.218x    \n",
      "Frame 287 processed in 0.155s\n",
      "Frame 288 processed in 0.149s\n",
      "Frame 289 processed in 0.154sze= 7516800kB time=00:00:11.60 bitrate=5308416.0kbits/s speed=0.218x    \n",
      "Frame 290 processed in 0.151s\n",
      "Frame 291 processed in 0.152s\n",
      "Frame 292 processed in 0.155sze= 7594560kB time=00:00:11.72 bitrate=5308416.0kbits/s speed=0.218x    \n",
      "Frame 293 processed in 0.153s\n",
      "Frame 294 processed in 0.155s\n",
      "Frame 295 processed in 0.160sze= 7672320kB time=00:00:11.84 bitrate=5308416.0kbits/s speed=0.218x    \n",
      "Frame 296 processed in 0.160s\n",
      "Frame 297 processed in 0.159s\n",
      "Frame 298 processed in 0.156sze= 7750080kB time=00:00:11.96 bitrate=5308416.0kbits/s speed=0.218x    \n",
      "Frame 299 processed in 0.166s\n",
      "Frame 300 processed in 0.164s\n",
      "Frame 301 processed in 0.170sze= 7827840kB time=00:00:12.08 bitrate=5308416.0kbits/s speed=0.218x    \n",
      "Frame 302 processed in 0.152s\n",
      "Frame 303 processed in 0.152s\n",
      "Frame 304 processed in 0.157sze= 7905600kB time=00:00:12.20 bitrate=5308416.0kbits/s speed=0.218x    \n",
      "Frame 305 processed in 0.154s\n",
      "Frame 306 processed in 0.178s\n",
      "Frame 307 processed in 0.176sze= 7983360kB time=00:00:12.32 bitrate=5308416.0kbits/s speed=0.218x    \n",
      "Frame 308 processed in 0.154s\n",
      "Frame 309 processed in 0.148s\n",
      "Frame 310 processed in 0.154sze= 8061120kB time=00:00:12.44 bitrate=5308416.0kbits/s speed=0.218x    \n",
      "Frame 311 processed in 0.187s\n",
      "Frame 312 processed in 0.171s\n",
      "Frame 313 processed in 0.150sze= 8138880kB time=00:00:12.56 bitrate=5308416.0kbits/s speed=0.218x    \n",
      "Frame 314 processed in 0.155s\n",
      "Frame 315 processed in 0.172s\n",
      "Frame 316 processed in 0.206sze= 8216640kB time=00:00:12.68 bitrate=5308416.0kbits/s speed=0.218x    \n",
      "Frame 317 processed in 0.200s\n",
      "Frame 318 processed in 0.154s\n",
      "Frame 319 processed in 0.161sze= 8294400kB time=00:00:12.80 bitrate=5308416.0kbits/s speed=0.217x    \n",
      "Frame 320 processed in 0.157s\n",
      "Frame 321 processed in 0.194s\n",
      "Frame 322 processed in 0.200sze= 8372160kB time=00:00:12.92 bitrate=5308416.0kbits/s speed=0.217x    \n",
      "Frame 323 processed in 0.154s\n",
      "Frame 324 processed in 0.181s\n",
      "Frame 325 processed in 0.162sze= 8449920kB time=00:00:13.04 bitrate=5308416.0kbits/s speed=0.217x    \n",
      "Frame 326 processed in 0.191s\n",
      "Frame 327 processed in 0.175s\n",
      "Frame 328 processed in 0.158sze= 8527680kB time=00:00:13.16 bitrate=5308416.0kbits/s speed=0.217x    \n",
      "Frame 329 processed in 0.157s\n",
      "Frame 330 processed in 0.168s\n",
      "Frame 331 processed in 0.165sze= 8605440kB time=00:00:13.28 bitrate=5308416.0kbits/s speed=0.217x    \n",
      "Frame 332 processed in 0.183s\n",
      "Frame 333 processed in 0.160s\n",
      "Frame 334 processed in 0.162sze= 8683200kB time=00:00:13.40 bitrate=5308416.0kbits/s speed=0.217x    \n",
      "Frame 335 processed in 0.159s\n",
      "Frame 336 processed in 0.150s\n",
      "Frame 337 processed in 0.186sze= 8760960kB time=00:00:13.52 bitrate=5308416.0kbits/s speed=0.217x    \n",
      "Frame 338 processed in 0.149s\n",
      "Frame 339 processed in 0.144s\n",
      "Frame 340 processed in 0.142sze= 8838720kB time=00:00:13.64 bitrate=5308416.0kbits/s speed=0.217x    \n",
      "Frame 341 processed in 0.144s\n",
      "Frame 342 processed in 0.186s\n",
      "Frame 343 processed in 0.144s\n",
      "Frame 344 processed in 0.144sze= 8942400kB time=00:00:13.80 bitrate=5308416.0kbits/s speed=0.217x    \n",
      "Frame 345 processed in 0.147s\n",
      "Frame 346 processed in 0.143s\n",
      "Frame 347 processed in 0.189s\n",
      "Frame 348 processed in 0.144sze= 9046080kB time=00:00:13.96 bitrate=5308416.0kbits/s speed=0.217x    \n",
      "Frame 349 processed in 0.144s\n",
      "Frame 350 processed in 0.140s\n",
      "Frame 351 processed in 0.142sze= 9123840kB time=00:00:14.08 bitrate=5308416.0kbits/s speed=0.217x    \n",
      "Frame 352 processed in 0.180s\n",
      "Frame 353 processed in 0.139s\n",
      "Frame 354 processed in 0.143sze= 9201600kB time=00:00:14.20 bitrate=5308416.0kbits/s speed=0.217x    \n",
      "Frame 355 processed in 0.151s\n",
      "Frame 356 processed in 0.148s\n",
      "Frame 357 processed in 0.186s\n",
      "Frame 358 processed in 0.143sze= 9305280kB time=00:00:14.36 bitrate=5308416.0kbits/s speed=0.218x    \n",
      "Frame 359 processed in 0.143s\n",
      "Frame 360 processed in 0.143s\n",
      "Frame 361 processed in 0.142sze= 9383040kB time=00:00:14.48 bitrate=5308416.0kbits/s speed=0.218x    \n",
      "Frame 362 processed in 0.184s\n",
      "Frame 363 processed in 0.164s\n",
      "Frame 364 processed in 0.144sze= 9460800kB time=00:00:14.60 bitrate=5308416.0kbits/s speed=0.218x    \n",
      "Frame 365 processed in 0.143s\n",
      "Frame 366 processed in 0.152s\n",
      "Frame 367 processed in 0.140s\n",
      "Frame 368 processed in 0.143sze= 9564480kB time=00:00:14.76 bitrate=5308416.0kbits/s speed=0.218x    \n",
      "Frame 369 processed in 0.151s\n",
      "Frame 370 processed in 0.153s\n",
      "Frame 371 processed in 0.151sze= 9642240kB time=00:00:14.88 bitrate=5308416.0kbits/s speed=0.218x    \n",
      "Frame 372 processed in 0.152s\n",
      "Frame 373 processed in 0.174s\n",
      "Frame 374 processed in 0.209sze= 9720000kB time=00:00:15.00 bitrate=5308416.0kbits/s speed=0.218x    \n",
      "Frame 375 processed in 0.154s\n",
      "Frame 376 processed in 0.175s\n",
      "Frame 377 processed in 0.148sze= 9797760kB time=00:00:15.12 bitrate=5308416.0kbits/s speed=0.218x    \n",
      "Frame 378 processed in 0.161s\n",
      "Frame 379 processed in 0.157s\n",
      "Frame 380 processed in 0.165sze= 9875520kB time=00:00:15.24 bitrate=5308416.0kbits/s speed=0.218x    \n",
      "Frame 381 processed in 0.185s\n",
      "Frame 382 processed in 0.162s\n",
      "Frame 383 processed in 0.159sze= 9953280kB time=00:00:15.36 bitrate=5308416.0kbits/s speed=0.218x    \n",
      "Frame 384 processed in 0.151s\n",
      "Frame 385 processed in 0.156s\n",
      "Frame 386 processed in 0.189sze=10031040kB time=00:00:15.48 bitrate=5308416.0kbits/s speed=0.218x    \n",
      "Frame 387 processed in 0.145s\n",
      "Frame 388 processed in 0.143s\n",
      "Frame 389 processed in 0.149sze=10108800kB time=00:00:15.60 bitrate=5308416.0kbits/s speed=0.218x    \n",
      "Frame 390 processed in 0.159s\n",
      "Frame 391 processed in 0.199s\n",
      "Frame 392 processed in 0.147sze=10186560kB time=00:00:15.72 bitrate=5308416.0kbits/s speed=0.218x    \n",
      "Frame 393 processed in 0.144s\n",
      "Frame 394 processed in 0.143s\n",
      "Frame 395 processed in 0.167sze=10264320kB time=00:00:15.84 bitrate=5308416.0kbits/s speed=0.218x    \n",
      "Frame 396 processed in 0.170s\n",
      "Frame 397 processed in 0.152s\n",
      "Frame 398 processed in 0.158sze=10342080kB time=00:00:15.96 bitrate=5308416.0kbits/s speed=0.218x    \n",
      "Frame 399 processed in 0.159s\n",
      "Frame 400 processed in 0.152s\n",
      "Frame 401 processed in 0.162sze=10419840kB time=00:00:16.08 bitrate=5308416.0kbits/s speed=0.218x    \n",
      "Frame 402 processed in 0.152s\n",
      "Frame 403 processed in 0.147s\n",
      "Frame 404 processed in 0.156sze=10497600kB time=00:00:16.20 bitrate=5308416.0kbits/s speed=0.218x    \n",
      "Frame 405 processed in 0.142s\n",
      "Frame 406 processed in 0.188s\n",
      "Frame 407 processed in 0.183sze=10575360kB time=00:00:16.32 bitrate=5308416.0kbits/s speed=0.218x    \n",
      "Frame 408 processed in 0.140s\n",
      "Frame 409 processed in 0.143s\n",
      "Frame 410 processed in 0.156sze=10653120kB time=00:00:16.44 bitrate=5308416.0kbits/s speed=0.218x    \n",
      "Frame 411 processed in 0.171s\n",
      "Frame 412 processed in 0.174s\n",
      "Frame 413 processed in 0.156sze=10730880kB time=00:00:16.56 bitrate=5308416.0kbits/s speed=0.218x    \n",
      "Frame 414 processed in 0.154s\n",
      "Frame 415 processed in 0.151s\n",
      "Frame 416 processed in 0.149sze=10808640kB time=00:00:16.68 bitrate=5308416.0kbits/s speed=0.218x    \n",
      "Frame 417 processed in 0.151s\n",
      "Frame 418 processed in 0.155s\n",
      "Frame 419 processed in 0.156sze=10886400kB time=00:00:16.80 bitrate=5308416.0kbits/s speed=0.218x    \n",
      "Frame 420 processed in 0.150s\n",
      "Frame 421 processed in 0.151s\n",
      "Frame 422 processed in 0.148sze=10964160kB time=00:00:16.92 bitrate=5308416.0kbits/s speed=0.218x    \n",
      "frame=  424 fps=5.4 q=-0.0 Lsize=10990080kB time=00:00:16.96 bitrate=5308416.0kbits/s speed=0.217x    \n",
      "video:10990080kB audio:0kB subtitle:0kB other streams:0kB global headers:0kB muxing overhead: 0.000000%\n",
      "Frame 423 processed in 0.156s\n",
      "/userhome/cs/am203/anaconda3/lib/python3.9/site-packages/numpy/lib/npyio.py:719: VisibleDeprecationWarning: Creating an ndarray from ragged nested sequences (which is a list-or-tuple of lists-or-tuples-or ndarrays with different lengths or shapes) is deprecated. If you meant to do this, you must specify 'dtype=object' when creating the ndarray.\n",
      "  val = np.asanyarray(val)\n"
     ]
    }
   ],
   "source": [
    "# this generate npz file in inference_output, using files in 'video' as input\n",
    "inference_output_dir = 'inference_output'\n",
    "video_input_dir = 'video'\n",
    "!mkdir $inference_output_dir\n",
    "!cd inference; python infer_video_d2.py \\\n",
    "    --cfg COCO-Keypoints/keypoint_rcnn_R_101_FPN_3x.yaml \\\n",
    "    --output-dir ../$inference_output_dir \\\n",
    "    --image-ext mp4 \\\n",
    "    ../$video_input_dir"
   ]
  },
  {
   "cell_type": "code",
   "execution_count": 16,
   "id": "e69461ce-cf48-475d-a87c-4369e288b997",
   "metadata": {
    "collapsed": true,
    "jupyter": {
     "outputs_hidden": true
    },
    "tags": []
   },
   "outputs": [
    {
     "name": "stdout",
     "output_type": "stream",
     "text": [
      "Parsing 2D detections from ../inference_output\n",
      "Processing ../inference_output/video4.mp4.npz\n",
      "424 total frames processed\n",
      "0 frames were interpolated\n",
      "----------\n",
      "Processing ../inference_output/video1.mp4.npz\n",
      "1022 total frames processed\n",
      "0 frames were interpolated\n",
      "----------\n",
      "Processing ../inference_output/video3.mp4.npz\n",
      "719 total frames processed\n",
      "0 frames were interpolated\n",
      "----------\n",
      "Processing ../inference_output/video2.mp4.npz\n",
      "195 total frames processed\n",
      "0 frames were interpolated\n",
      "----------\n",
      "Saving...\n",
      "Done.\n",
      "Parsing 2D detections from ../inference_output\n",
      "Processing ../inference_output/video4.mp4.npz\n",
      "424 total frames processed\n",
      "0 frames were interpolated\n",
      "----------\n",
      "Processing ../inference_output/video1.mp4.npz\n",
      "1022 total frames processed\n",
      "0 frames were interpolated\n",
      "----------\n",
      "Processing ../inference_output/video3.mp4.npz\n",
      "719 total frames processed\n",
      "0 frames were interpolated\n",
      "----------\n",
      "Processing ../inference_output/video2.mp4.npz\n",
      "195 total frames processed\n",
      "0 frames were interpolated\n",
      "----------\n",
      "Saving...\n",
      "Done.\n",
      "Parsing 2D detections from ../inference_output\n",
      "Processing ../inference_output/video4.mp4.npz\n",
      "424 total frames processed\n",
      "0 frames were interpolated\n",
      "----------\n",
      "Processing ../inference_output/video1.mp4.npz\n",
      "1022 total frames processed\n",
      "0 frames were interpolated\n",
      "----------\n",
      "Processing ../inference_output/video3.mp4.npz\n",
      "719 total frames processed\n",
      "0 frames were interpolated\n",
      "----------\n",
      "Processing ../inference_output/video2.mp4.npz\n",
      "195 total frames processed\n",
      "0 frames were interpolated\n",
      "----------\n",
      "Saving...\n",
      "Done.\n",
      "Parsing 2D detections from ../inference_output\n",
      "Processing ../inference_output/video4.mp4.npz\n",
      "424 total frames processed\n",
      "0 frames were interpolated\n",
      "----------\n",
      "Processing ../inference_output/video1.mp4.npz\n",
      "1022 total frames processed\n",
      "0 frames were interpolated\n",
      "----------\n",
      "Processing ../inference_output/video3.mp4.npz\n",
      "719 total frames processed\n",
      "0 frames were interpolated\n",
      "----------\n",
      "Processing ../inference_output/video2.mp4.npz\n",
      "195 total frames processed\n",
      "0 frames were interpolated\n",
      "----------\n",
      "Saving...\n",
      "Done.\n",
      "total 388218\n",
      "-rw-rw-r--  1 am203 am203    275506 Jul 13 01:03 data_2d_custom_video4.npz\n",
      "drwxrwxr-x  4 am203 am203        19 Jul 13 01:03 .\n",
      "-rw-rw-r--  1 am203 am203    275506 Jul 13 01:03 data_2d_custom_video3.npz\n",
      "-rw-rw-r--  1 am203 am203    275506 Jul 13 01:03 data_2d_custom_video2.npz\n",
      "-rw-rw-r--  1 am203 am203    275506 Jul 13 01:03 data_2d_custom_video1.npz\n",
      "drwxrwxr-x 13 am203 am203        23 Jul 13 01:03 ..\n",
      "-rw-rw-r--  1 am203 am203    275506 Jul 13 00:59 data_2d_custom_video.npz\n",
      "-rw-rw-r--  1 am203 am203 153173634 Jul 12 10:43 data_3d_h36m.npz\n",
      "-rw-rw-r--  1 am203 am203 242734798 Jul 12 10:43 data_2d_h36m_cpn_ft_h36m_dbb.npz\n",
      "drwxrwxr-x  2 am203 am203         2 Jul  4 23:41 .ipynb_checkpoints\n",
      "drwxrwxr-x  2 am203 am203         3 Jul  4 23:39 __pycache__\n",
      "-rw-rw-r--  1 am203 am203      7285 Jul  4 22:09 prepare_data_h36m.py\n",
      "-rw-rw-r--  1 am203 am203      9530 Jul  4 22:09 prepare_data_humaneva.py\n",
      "-rw-rw-r--  1 am203 am203      3447 Jul  4 22:09 prepare_data_2d_custom.py\n",
      "-rw-rw-r--  1 am203 am203      2820 Jul  4 22:09 prepare_data_2d_h36m_generic.py\n",
      "-rw-rw-r--  1 am203 am203      3717 Jul  4 22:09 prepare_data_2d_h36m_sh.py\n",
      "-rw-rw-r--  1 am203 am203       597 Jul  4 22:09 convert_cdf_to_mat.m\n",
      "-rw-rw-r--  1 am203 am203      2719 Jul  4 22:09 data_utils.py\n",
      "-rw-rw-r--  1 am203 am203      6983 Jul  4 22:09 ConvertHumanEva.m\n"
     ]
    }
   ],
   "source": [
    "# Create custom dataset\n",
    "# will result in data/data_2d_custom_video.npz\n",
    "video_num = 4\n",
    "for i in range(video_num):\n",
    "    input_video = 'video' + str(i+1)\n",
    "    !cd data; python prepare_data_2d_custom.py -i ../$inference_output_dir -o $input_video\n",
    "!ls -alt data"
   ]
  },
  {
   "cell_type": "code",
   "execution_count": 17,
   "id": "8cfeb15d-53e8-4546-9c85-07f0934b088d",
   "metadata": {
    "tags": []
   },
   "outputs": [
    {
     "name": "stdout",
     "output_type": "stream",
     "text": [
      "Namespace(dataset='custom', keypoints='video1', subjects_train='S1,S5,S6,S7,S8', subjects_test='S9,S11', subjects_unlabeled='', actions='*', checkpoint='checkpoint', checkpoint_frequency=10, resume='', evaluate='pretrained_h36m_detectron_coco.bin', render=True, by_subject=False, export_training_curves=False, stride=1, epochs=60, batch_size=1024, dropout=0.25, learning_rate=0.001, lr_decay=0.95, data_augmentation=True, test_time_augmentation=True, architecture='3,3,3,3,3', causal=False, channels=1024, subset=1, downsample=1, warmup=1, no_eval=False, dense=False, disable_optimizations=False, linear_projection=False, bone_length_term=True, no_proj=False, viz_subject='video1.mp4', viz_action='custom', viz_camera=0, viz_video='video/video1.mp4', viz_skip=0, viz_output='video_output/output_video1.mp4', viz_export=None, viz_bitrate=3000, viz_no_ground_truth=False, viz_limit=-1, viz_downsample=1, viz_size=6)\n",
      "Loading dataset...\n",
      "Preparing data...\n",
      "Loading 2D detections...\n",
      "INFO: Receptive field: 243 frames\n",
      "INFO: Trainable parameter count: 16952371\n",
      "Loading checkpoint checkpoint/pretrained_h36m_detectron_coco.bin\n",
      "This model was trained for 80 epochs\n",
      "INFO: Testing on 1022 frames\n",
      "Rendering...\n",
      "INFO: this action is unlabeled. Ground truth will not be rendered.\n",
      "ffmpeg version 4.2.2 Copyright (c) 2000-2019 the FFmpeg developers\n",
      "  built with gcc 7.3.0 (crosstool-NG 1.23.0.449-a04d0)\n",
      "  configuration: --prefix=/tmp/build/80754af9/ffmpeg_1587154242452/_h_env_placehold_placehold_placehold_placehold_placehold_placehold_placehold_placehold_placehold_placehold_placehold_placehold_placehold_placehold_placehold_placehold_placehold_placehold_placehold_placehold_placeho --cc=/tmp/build/80754af9/ffmpeg_1587154242452/_build_env/bin/x86_64-conda_cos6-linux-gnu-cc --disable-doc --enable-avresample --enable-gmp --enable-hardcoded-tables --enable-libfreetype --enable-libvpx --enable-pthreads --enable-libopus --enable-postproc --enable-pic --enable-pthreads --enable-shared --enable-static --enable-version3 --enable-zlib --enable-libmp3lame --disable-nonfree --enable-gpl --enable-gnutls --disable-openssl --enable-libopenh264 --enable-libx264\n",
      "  libavutil      56. 31.100 / 56. 31.100\n",
      "  libavcodec     58. 54.100 / 58. 54.100\n",
      "  libavformat    58. 29.100 / 58. 29.100\n",
      "  libavdevice    58.  8.100 / 58.  8.100\n",
      "  libavfilter     7. 57.100 /  7. 57.100\n",
      "  libavresample   4.  0.  0 /  4.  0.  0\n",
      "  libswscale      5.  5.100 /  5.  5.100\n",
      "  libswresample   3.  5.100 /  3.  5.100\n",
      "  libpostproc    55.  5.100 / 55.  5.100\n",
      "Input #0, mov,mp4,m4a,3gp,3g2,mj2, from 'video/video1.mp4':\n",
      "  Metadata:\n",
      "    major_brand     : isom\n",
      "    minor_version   : 512\n",
      "    compatible_brands: isomiso2avc1mp41\n",
      "    encoder         : Lavf56.4.101\n",
      "    description     : Packed by Bilibili XCoder v2.0.2\n",
      "  Duration: 00:00:38.00, start: 0.015000, bitrate: 1780 kb/s\n",
      "    Stream #0:0(und): Video: h264 (High) (avc1 / 0x31637661), yuv420p, 1280x720 [SAR 1:1 DAR 16:9], 1868 kb/s, 30 fps, 30 tbr, 16k tbn, 60 tbc (default)\n",
      "    Metadata:\n",
      "      handler_name    : VideoHandler\n",
      "    Stream #0:1(und): Audio: aac (LC) (mp4a / 0x6134706D), 48000 Hz, mono, fltp, 95 kb/s (default)\n",
      "    Metadata:\n",
      "      handler_name    : SoundHandler\n",
      "Stream mapping:\n",
      "  Stream #0:0 -> #0:0 (h264 (native) -> rawvideo (native))\n",
      "Press [q] to stop, [?] for help\n",
      "Output #0, image2pipe, to 'pipe:':\n",
      "  Metadata:\n",
      "    major_brand     : isom\n",
      "    minor_version   : 512\n",
      "    compatible_brands: isomiso2avc1mp41\n",
      "    description     : Packed by Bilibili XCoder v2.0.2\n",
      "    encoder         : Lavf58.29.100\n",
      "    Stream #0:0(und): Video: rawvideo (RGB[24] / 0x18424752), rgb24, 1280x720 [SAR 1:1 DAR 16:9], q=2-31, 663552 kb/s, 30 fps, 30 tbn, 30 tbc (default)\n",
      "    Metadata:\n",
      "      handler_name    : VideoHandler\n",
      "      encoder         : Lavc58.54.100 rawvideo\n",
      "frame= 1022 fps=134 q=-0.0 Lsize= 2759400kB time=00:00:38.06 bitrate=593826.7kbits/s speed=4.97x    \n",
      "video:2759400kB audio:0kB subtitle:0kB other streams:0kB global headers:0kB muxing overhead: 0.000000%\n",
      "/userhome/cs/am203/COMP7404/VideoPose3D/common/visualization.py:198: UserWarning: Tight layout not applied. The left and right margins cannot be made large enough to accommodate all axes decorations.\n",
      "  fig.tight_layout()\n",
      "Namespace(dataset='custom', keypoints='video2', subjects_train='S1,S5,S6,S7,S8', subjects_test='S9,S11', subjects_unlabeled='', actions='*', checkpoint='checkpoint', checkpoint_frequency=10, resume='', evaluate='pretrained_h36m_detectron_coco.bin', render=True, by_subject=False, export_training_curves=False, stride=1, epochs=60, batch_size=1024, dropout=0.25, learning_rate=0.001, lr_decay=0.95, data_augmentation=True, test_time_augmentation=True, architecture='3,3,3,3,3', causal=False, channels=1024, subset=1, downsample=1, warmup=1, no_eval=False, dense=False, disable_optimizations=False, linear_projection=False, bone_length_term=True, no_proj=False, viz_subject='video2.mp4', viz_action='custom', viz_camera=0, viz_video='video/video2.mp4', viz_skip=0, viz_output='video_output/output_video2.mp4', viz_export=None, viz_bitrate=3000, viz_no_ground_truth=False, viz_limit=-1, viz_downsample=1, viz_size=6)\n",
      "Loading dataset...\n",
      "Preparing data...\n",
      "Loading 2D detections...\n",
      "INFO: Receptive field: 243 frames\n",
      "INFO: Trainable parameter count: 16952371\n",
      "Loading checkpoint checkpoint/pretrained_h36m_detectron_coco.bin\n",
      "This model was trained for 80 epochs\n",
      "INFO: Testing on 195 frames\n",
      "Rendering...\n",
      "INFO: this action is unlabeled. Ground truth will not be rendered.\n",
      "ffmpeg version 4.2.2 Copyright (c) 2000-2019 the FFmpeg developers\n",
      "  built with gcc 7.3.0 (crosstool-NG 1.23.0.449-a04d0)\n",
      "  configuration: --prefix=/tmp/build/80754af9/ffmpeg_1587154242452/_h_env_placehold_placehold_placehold_placehold_placehold_placehold_placehold_placehold_placehold_placehold_placehold_placehold_placehold_placehold_placehold_placehold_placehold_placehold_placehold_placehold_placeho --cc=/tmp/build/80754af9/ffmpeg_1587154242452/_build_env/bin/x86_64-conda_cos6-linux-gnu-cc --disable-doc --enable-avresample --enable-gmp --enable-hardcoded-tables --enable-libfreetype --enable-libvpx --enable-pthreads --enable-libopus --enable-postproc --enable-pic --enable-pthreads --enable-shared --enable-static --enable-version3 --enable-zlib --enable-libmp3lame --disable-nonfree --enable-gpl --enable-gnutls --disable-openssl --enable-libopenh264 --enable-libx264\n",
      "  libavutil      56. 31.100 / 56. 31.100\n",
      "  libavcodec     58. 54.100 / 58. 54.100\n",
      "  libavformat    58. 29.100 / 58. 29.100\n",
      "  libavdevice    58.  8.100 / 58.  8.100\n",
      "  libavfilter     7. 57.100 /  7. 57.100\n",
      "  libavresample   4.  0.  0 /  4.  0.  0\n",
      "  libswscale      5.  5.100 /  5.  5.100\n",
      "  libswresample   3.  5.100 /  3.  5.100\n",
      "  libpostproc    55.  5.100 / 55.  5.100\n",
      "Input #0, mov,mp4,m4a,3gp,3g2,mj2, from 'video/video2.mp4':\n",
      "  Metadata:\n",
      "    major_brand     : mp42\n",
      "    minor_version   : 0\n",
      "    compatible_brands: mp42mp41isomavc1\n",
      "    creation_time   : 2020-09-18T13:23:23.000000Z\n",
      "  Duration: 00:00:07.81, start: 0.000000, bitrate: 5132 kb/s\n",
      "    Stream #0:0(und): Video: h264 (High) (avc1 / 0x31637661), yuv420p(tv, bt709), 1920x1080, 4878 kb/s, 25 fps, 25 tbr, 25 tbn, 50 tbc (default)\n",
      "    Metadata:\n",
      "      creation_time   : 2020-09-18T13:23:23.000000Z\n",
      "      handler_name    : L-SMASH Video Handler\n",
      "      encoder         : AVC Coding\n",
      "    Stream #0:1(und): Audio: aac (LC) (mp4a / 0x6134706D), 48000 Hz, stereo, fltp, 253 kb/s (default)\n",
      "    Metadata:\n",
      "      creation_time   : 2020-09-18T13:23:23.000000Z\n",
      "      handler_name    : L-SMASH Audio Handler\n",
      "Stream mapping:\n",
      "  Stream #0:0 -> #0:0 (h264 (native) -> rawvideo (native))\n",
      "Press [q] to stop, [?] for help\n",
      "Output #0, image2pipe, to 'pipe:':\n",
      "  Metadata:\n",
      "    major_brand     : mp42\n",
      "    minor_version   : 0\n",
      "    compatible_brands: mp42mp41isomavc1\n",
      "    encoder         : Lavf58.29.100\n",
      "    Stream #0:0(und): Video: rawvideo (RGB[24] / 0x18424752), rgb24, 1920x1080, q=2-31, 1244160 kb/s, 25 fps, 25 tbn, 25 tbc (default)\n",
      "    Metadata:\n",
      "      creation_time   : 2020-09-18T13:23:23.000000Z\n",
      "      handler_name    : L-SMASH Video Handler\n",
      "      encoder         : Lavc58.54.100 rawvideo\n",
      "frame=  195 fps= 64 q=-0.0 Lsize= 1184625kB time=00:00:07.80 bitrate=1244160.0kbits/s speed=2.57x    \n",
      "video:1184625kB audio:0kB subtitle:0kB other streams:0kB global headers:0kB muxing overhead: 0.000000%\n",
      "/userhome/cs/am203/COMP7404/VideoPose3D/common/visualization.py:198: UserWarning: Tight layout not applied. The left and right margins cannot be made large enough to accommodate all axes decorations.\n",
      "  fig.tight_layout()\n",
      "Namespace(dataset='custom', keypoints='video3', subjects_train='S1,S5,S6,S7,S8', subjects_test='S9,S11', subjects_unlabeled='', actions='*', checkpoint='checkpoint', checkpoint_frequency=10, resume='', evaluate='pretrained_h36m_detectron_coco.bin', render=True, by_subject=False, export_training_curves=False, stride=1, epochs=60, batch_size=1024, dropout=0.25, learning_rate=0.001, lr_decay=0.95, data_augmentation=True, test_time_augmentation=True, architecture='3,3,3,3,3', causal=False, channels=1024, subset=1, downsample=1, warmup=1, no_eval=False, dense=False, disable_optimizations=False, linear_projection=False, bone_length_term=True, no_proj=False, viz_subject='video3.mp4', viz_action='custom', viz_camera=0, viz_video='video/video3.mp4', viz_skip=0, viz_output='video_output/output_video3.mp4', viz_export=None, viz_bitrate=3000, viz_no_ground_truth=False, viz_limit=-1, viz_downsample=1, viz_size=6)\n",
      "Loading dataset...\n",
      "Preparing data...\n",
      "Loading 2D detections...\n",
      "INFO: Receptive field: 243 frames\n",
      "INFO: Trainable parameter count: 16952371\n",
      "Loading checkpoint checkpoint/pretrained_h36m_detectron_coco.bin\n",
      "This model was trained for 80 epochs\n",
      "INFO: Testing on 719 frames\n",
      "Rendering...\n",
      "INFO: this action is unlabeled. Ground truth will not be rendered.\n",
      "ffmpeg version 4.2.2 Copyright (c) 2000-2019 the FFmpeg developers\n",
      "  built with gcc 7.3.0 (crosstool-NG 1.23.0.449-a04d0)\n",
      "  configuration: --prefix=/tmp/build/80754af9/ffmpeg_1587154242452/_h_env_placehold_placehold_placehold_placehold_placehold_placehold_placehold_placehold_placehold_placehold_placehold_placehold_placehold_placehold_placehold_placehold_placehold_placehold_placehold_placehold_placeho --cc=/tmp/build/80754af9/ffmpeg_1587154242452/_build_env/bin/x86_64-conda_cos6-linux-gnu-cc --disable-doc --enable-avresample --enable-gmp --enable-hardcoded-tables --enable-libfreetype --enable-libvpx --enable-pthreads --enable-libopus --enable-postproc --enable-pic --enable-pthreads --enable-shared --enable-static --enable-version3 --enable-zlib --enable-libmp3lame --disable-nonfree --enable-gpl --enable-gnutls --disable-openssl --enable-libopenh264 --enable-libx264\n",
      "  libavutil      56. 31.100 / 56. 31.100\n",
      "  libavcodec     58. 54.100 / 58. 54.100\n",
      "  libavformat    58. 29.100 / 58. 29.100\n",
      "  libavdevice    58.  8.100 / 58.  8.100\n",
      "  libavfilter     7. 57.100 /  7. 57.100\n",
      "  libavresample   4.  0.  0 /  4.  0.  0\n",
      "  libswscale      5.  5.100 /  5.  5.100\n",
      "  libswresample   3.  5.100 /  3.  5.100\n",
      "  libpostproc    55.  5.100 / 55.  5.100\n",
      "Input #0, mov,mp4,m4a,3gp,3g2,mj2, from 'video/video3.mp4':\n",
      "  Metadata:\n",
      "    major_brand     : isom\n",
      "    minor_version   : 512\n",
      "    compatible_brands: isomiso2avc1mp41\n",
      "    encoder         : Lavf58.29.100\n",
      "  Duration: 00:00:25.00, start: 0.000000, bitrate: 2777 kb/s\n",
      "    Stream #0:0(und): Video: h264 (High) (avc1 / 0x31637661), yuv420p(tv, bt709), 1280x720, 2745 kb/s, 30 fps, 30 tbr, 15360 tbn, 60 tbc (default)\n",
      "    Metadata:\n",
      "      handler_name    : L-SMASH Video Handler\n",
      "    Stream #0:1(und): Audio: aac (LC) (mp4a / 0x6134706D), 48000 Hz, stereo, fltp, 137 kb/s (default)\n",
      "    Metadata:\n",
      "      handler_name    : L-SMASH Audio Handler\n",
      "Stream mapping:\n",
      "  Stream #0:0 -> #0:0 (h264 (native) -> rawvideo (native))\n",
      "Press [q] to stop, [?] for help\n",
      "Output #0, image2pipe, to 'pipe:':\n",
      "  Metadata:\n",
      "    major_brand     : isom\n",
      "    minor_version   : 512\n",
      "    compatible_brands: isomiso2avc1mp41\n",
      "    encoder         : Lavf58.29.100\n",
      "    Stream #0:0(und): Video: rawvideo (RGB[24] / 0x18424752), rgb24, 1280x720, q=2-31, 663552 kb/s, 30 fps, 30 tbn, 30 tbc (default)\n",
      "    Metadata:\n",
      "      handler_name    : L-SMASH Video Handler\n",
      "      encoder         : Lavc58.54.100 rawvideo\n",
      "frame=  719 fps=123 q=-0.0 Lsize= 1941300kB time=00:00:25.10 bitrate=633590.8kbits/s speed= 4.3x    \n",
      "video:1941300kB audio:0kB subtitle:0kB other streams:0kB global headers:0kB muxing overhead: 0.000000%\n",
      "/userhome/cs/am203/COMP7404/VideoPose3D/common/visualization.py:198: UserWarning: Tight layout not applied. The left and right margins cannot be made large enough to accommodate all axes decorations.\n",
      "  fig.tight_layout()\n",
      "Namespace(dataset='custom', keypoints='video4', subjects_train='S1,S5,S6,S7,S8', subjects_test='S9,S11', subjects_unlabeled='', actions='*', checkpoint='checkpoint', checkpoint_frequency=10, resume='', evaluate='pretrained_h36m_detectron_coco.bin', render=True, by_subject=False, export_training_curves=False, stride=1, epochs=60, batch_size=1024, dropout=0.25, learning_rate=0.001, lr_decay=0.95, data_augmentation=True, test_time_augmentation=True, architecture='3,3,3,3,3', causal=False, channels=1024, subset=1, downsample=1, warmup=1, no_eval=False, dense=False, disable_optimizations=False, linear_projection=False, bone_length_term=True, no_proj=False, viz_subject='video4.mp4', viz_action='custom', viz_camera=0, viz_video='video/video4.mp4', viz_skip=0, viz_output='video_output/output_video4.mp4', viz_export=None, viz_bitrate=3000, viz_no_ground_truth=False, viz_limit=-1, viz_downsample=1, viz_size=6)\n",
      "Loading dataset...\n",
      "Preparing data...\n",
      "Loading 2D detections...\n",
      "INFO: Receptive field: 243 frames\n",
      "INFO: Trainable parameter count: 16952371\n",
      "Loading checkpoint checkpoint/pretrained_h36m_detectron_coco.bin\n",
      "This model was trained for 80 epochs\n",
      "INFO: Testing on 424 frames\n",
      "Rendering...\n",
      "INFO: this action is unlabeled. Ground truth will not be rendered.\n",
      "ffmpeg version 4.2.2 Copyright (c) 2000-2019 the FFmpeg developers\n",
      "  built with gcc 7.3.0 (crosstool-NG 1.23.0.449-a04d0)\n",
      "  configuration: --prefix=/tmp/build/80754af9/ffmpeg_1587154242452/_h_env_placehold_placehold_placehold_placehold_placehold_placehold_placehold_placehold_placehold_placehold_placehold_placehold_placehold_placehold_placehold_placehold_placehold_placehold_placehold_placehold_placeho --cc=/tmp/build/80754af9/ffmpeg_1587154242452/_build_env/bin/x86_64-conda_cos6-linux-gnu-cc --disable-doc --enable-avresample --enable-gmp --enable-hardcoded-tables --enable-libfreetype --enable-libvpx --enable-pthreads --enable-libopus --enable-postproc --enable-pic --enable-pthreads --enable-shared --enable-static --enable-version3 --enable-zlib --enable-libmp3lame --disable-nonfree --enable-gpl --enable-gnutls --disable-openssl --enable-libopenh264 --enable-libx264\n",
      "  libavutil      56. 31.100 / 56. 31.100\n",
      "  libavcodec     58. 54.100 / 58. 54.100\n",
      "  libavformat    58. 29.100 / 58. 29.100\n",
      "  libavdevice    58.  8.100 / 58.  8.100\n",
      "  libavfilter     7. 57.100 /  7. 57.100\n",
      "  libavresample   4.  0.  0 /  4.  0.  0\n",
      "  libswscale      5.  5.100 /  5.  5.100\n",
      "  libswresample   3.  5.100 /  3.  5.100\n",
      "  libpostproc    55.  5.100 / 55.  5.100\n",
      "Input #0, mov,mp4,m4a,3gp,3g2,mj2, from 'video/video4.mp4':\n",
      "  Metadata:\n",
      "    major_brand     : isom\n",
      "    minor_version   : 512\n",
      "    compatible_brands: isomiso2avc1mp41\n",
      "    encoder         : Lavf58.29.100\n",
      "  Duration: 00:00:17.00, start: 3.040000, bitrate: 18665 kb/s\n",
      "    Stream #0:0(und): Video: h264 (High) (avc1 / 0x31637661), yuv420p(tv, bt709), 2160x4096, 18663 kb/s, 25 fps, 25 tbr, 12800 tbn, 50 tbc (default)\n",
      "    Metadata:\n",
      "      handler_name    : L-SMASH Video Handler\n",
      "Stream mapping:\n",
      "  Stream #0:0 -> #0:0 (h264 (native) -> rawvideo (native))\n",
      "Press [q] to stop, [?] for help\n",
      "Output #0, image2pipe, to 'pipe:':\n",
      "  Metadata:\n",
      "    major_brand     : isom\n",
      "    minor_version   : 512\n",
      "    compatible_brands: isomiso2avc1mp41\n",
      "    encoder         : Lavf58.29.100\n",
      "    Stream #0:0(und): Video: rawvideo (RGB[24] / 0x18424752), rgb24, 2160x4096, q=2-31, 5308416 kb/s, 25 fps, 25 tbn, 25 tbc (default)\n",
      "    Metadata:\n",
      "      handler_name    : L-SMASH Video Handler\n",
      "      encoder         : Lavc58.54.100 rawvideo\n",
      "frame=  424 fps= 20 q=-0.0 Lsize=10990080kB time=00:00:16.96 bitrate=5308416.0kbits/s speed=0.783x    \n",
      "video:10990080kB audio:0kB subtitle:0kB other streams:0kB global headers:0kB muxing overhead: 0.000000%\n",
      "/userhome/cs/am203/COMP7404/VideoPose3D/common/visualization.py:198: UserWarning: Tight layout not applied. The left and right margins cannot be made large enough to accommodate all axes decorations.\n",
      "  fig.tight_layout()\n",
      "423/424      \r"
     ]
    }
   ],
   "source": [
    "\n",
    "output_dir = 'video_output'\n",
    "video_input_dir = 'video'\n",
    "for i in range(video_num):\n",
    "    input_video = 'video' + str(i+1)\n",
    "    input_video_filename = input_video + '.mp4'\n",
    "    output_video_filename = 'output_video' + str(i+1) + '.mp4'\n",
    "    !python run.py \\\n",
    "    -d custom \\\n",
    "    -k {input_video} \\\n",
    "    -arc 3,3,3,3,3 \\\n",
    "    -c checkpoint \\\n",
    "    --evaluate pretrained_h36m_detectron_coco.bin \\\n",
    "    --render \\\n",
    "    --viz-subject {input_video_filename} \\\n",
    "    --viz-action custom \\\n",
    "    --viz-video {video_input_dir + \"/\" + input_video_filename} \\\n",
    "    --viz-output {output_dir + \"/\" + output_video_filename} \\\n",
    "    --viz-size 6"
   ]
  },
  {
   "cell_type": "code",
   "execution_count": 2,
   "id": "27d037f9-199b-4310-82aa-bd0e03ae8c5e",
   "metadata": {},
   "outputs": [
    {
     "data": {
      "text/html": [
       "<video src=\"video_output/output_video3.mp4\" controls  >\n",
       "      Your browser does not support the <code>video</code> element.\n",
       "    </video>"
      ],
      "text/plain": [
       "<IPython.core.display.Video object>"
      ]
     },
     "execution_count": 2,
     "metadata": {},
     "output_type": "execute_result"
    }
   ],
   "source": [
    "from IPython.display import Video\n",
    "output_video_filename = 'output_video3.mp4'\n",
    "Video(output_dir+\"/\"+output_video_filename)"
   ]
  },
  {
   "cell_type": "code",
   "execution_count": null,
   "id": "035e9953-8777-46b6-99e6-90003e5f12df",
   "metadata": {},
   "outputs": [],
   "source": []
  }
 ],
 "metadata": {
  "kernelspec": {
   "display_name": "Python 3 (ipykernel)",
   "language": "python",
   "name": "python3"
  },
  "language_info": {
   "codemirror_mode": {
    "name": "ipython",
    "version": 3
   },
   "file_extension": ".py",
   "mimetype": "text/x-python",
   "name": "python",
   "nbconvert_exporter": "python",
   "pygments_lexer": "ipython3",
   "version": "3.9.7"
  }
 },
 "nbformat": 4,
 "nbformat_minor": 5
}
